<svg xmlns="http://www.w3.org/2000/svg" viewBox="0 0 750 500"><g id="freepik--background-complete--inject-4"><circle cx="231.9" cy="88.26" r="32.87" transform="matrix(0.23, -0.97, 0.97, 0.23, 93.4, 294.14)" style="fill:#ebebeb"></circle><path d="M223.21,89.26V79.68a3.24,3.24,0,0,1,4.86-2.8l8.29,4.79,8.29,4.79a3.24,3.24,0,0,1,0,5.61l-8.29,4.78-8.29,4.79a3.24,3.24,0,0,1-4.86-2.8Z" style="fill:#fff"></path><path d="M518.48,101.09h0a18.54,18.54,0,0,1-18.54-18.53V60.79a18.53,18.53,0,0,1,18.54-18.53h0A18.53,18.53,0,0,1,537,60.79V82.56A18.53,18.53,0,0,1,518.48,101.09Z" style="fill:#ebebeb"></path><path d="M518.48,112.38A27.39,27.39,0,0,1,491.12,85h2.65a24.74,24.74,0,0,0,24.7,24.71c14.55,0,24.71-10.18,24.71-24.71h2.65C545.83,101.11,534.58,112.36,518.48,112.38Z" style="fill:#ebebeb"></path><rect x="517.15" y="111.03" width="2.65" height="13.39" style="fill:#ebebeb"></rect><rect x="502.3" y="122.52" width="32.35" height="2.65" style="fill:#ebebeb"></rect><path d="M491.16,54.38c-1,0-2.45-.53-4.78-1.52-3.95-1.68-5.27-2.53-4.81-3.94l.19-.55.62-.32c1.38-.62,4.88.81,5.57,1.1s4.15,1.83,4.66,3.25l.2.55-.27.63h0A1.41,1.41,0,0,1,491.16,54.38Z" style="fill:#ebebeb"></path><path d="M501.74,40.51c-.84,0-2.12-.94-4.79-4.56-3.16-4.29-3-5.33-2.94-5.67l.08-.55L495,29l.64.06c.34.05,1.38.21,4.54,4.5,3.69,5,3.26,6,2.38,6.62h0A1.31,1.31,0,0,1,501.74,40.51Z" style="fill:#ebebeb"></path><path d="M518.06,35.49l-.5-.43c-.25-.24-1-1-1-6s.83-5.76,1.09-6l.42-.39h.67c.81.06,1.92.15,1.85,6.42s-1.18,6.32-2,6.37Z" style="fill:#ebebeb"></path><path d="M534.32,39.09l-.55-.44c-1.17-1.07-.12-2.59,2.17-5.63s3.45-4.47,4.82-3.65l.51.29.18.7c.32,1.57-2,4.72-2.29,5.08s-2.65,3.47-4.24,3.6Z" style="fill:#ebebeb"></path><path d="M546.31,54.18a1.31,1.31,0,0,1-1.27-.75c-.71-1.25.66-2.31,1.32-2.83a26.81,26.81,0,0,1,3-2c4.92-2.8,5.82-2.17,6.33-1.28.7,1.24-.66,2.31-1.32,2.82a26.34,26.34,0,0,1-3,2C548.68,53.67,547.19,54.18,546.31,54.18Z" style="fill:#ebebeb"></path><path d="M406.35,430.3a3,3,0,0,1-3-3V383.67a3,3,0,0,1,6.05,0v43.61A3,3,0,0,1,406.35,430.3Z" style="fill:#e0e0e0"></path><path d="M392.17,423.48a3,3,0,0,1-3-3v-30a3,3,0,0,1,6.05,0v30A3,3,0,0,1,392.17,423.48Z" style="fill:#e0e0e0"></path><path d="M420.54,423.48a3,3,0,0,1-3-3v-30a3,3,0,0,1,6.05,0v30A3,3,0,0,1,420.54,423.48Z" style="fill:#e0e0e0"></path><path d="M434.72,417.36a3,3,0,0,1-3-3V396.61a3,3,0,0,1,6.05,0v17.73A3,3,0,0,1,434.72,417.36Z" style="fill:#e0e0e0"></path><path d="M661.62,430.3a3,3,0,0,1-3-3V383.67a3,3,0,0,1,6,0v43.61A3,3,0,0,1,661.62,430.3Z" style="fill:#e0e0e0"></path><path d="M647.44,423.48a3,3,0,0,1-3-3v-30a3,3,0,0,1,6.05,0v30A3,3,0,0,1,647.44,423.48Z" style="fill:#e0e0e0"></path><path d="M675.81,423.48a3,3,0,0,1-3-3v-30a3,3,0,0,1,6.05,0v30A3,3,0,0,1,675.81,423.48Z" style="fill:#e0e0e0"></path><path d="M690,417.36a3,3,0,0,1-3-3V396.61a3,3,0,0,1,6,0v17.73A3,3,0,0,1,690,417.36Z" style="fill:#e0e0e0"></path><path d="M448.9,422.92a3,3,0,0,1-3-3V391.06a3,3,0,1,1,6.05,0v28.83A3,3,0,0,1,448.9,422.92Z" style="fill:#e0e0e0"></path><path d="M463.08,429.22a3,3,0,0,1-3-3V384.75a3,3,0,0,1,6.05,0v41.44A3,3,0,0,1,463.08,429.22Z" style="fill:#e0e0e0"></path><path d="M477.26,436.77a3,3,0,0,1-3-3V377.2a3,3,0,1,1,6.05,0v56.55A3,3,0,0,1,477.26,436.77Z" style="fill:#e0e0e0"></path><path d="M491.44,429.54a3,3,0,0,1-3-3V384.43a3,3,0,0,1,6.05,0v42.09A3,3,0,0,1,491.44,429.54Z" style="fill:#e0e0e0"></path><path d="M505.63,422.76a3,3,0,0,1-3-3V391.22a3,3,0,1,1,6,0v28.51A3,3,0,0,1,505.63,422.76Z" style="fill:#e0e0e0"></path><path d="M519.81,419.13a3,3,0,0,1-3-3V394.84a3,3,0,0,1,6.05,0v21.27A3,3,0,0,1,519.81,419.13Z" style="fill:#e0e0e0"></path><path d="M534,430a3,3,0,0,1-3-3V384a3,3,0,1,1,6,0v43A3,3,0,0,1,534,430Z" style="fill:#e0e0e0"></path><path d="M590.72,430a3,3,0,0,1-3-3V384a3,3,0,1,1,6,0v43A3,3,0,0,1,590.72,430Z" style="fill:#e0e0e0"></path><path d="M548.17,436.77a3,3,0,0,1-3-3V377.2a3,3,0,1,1,6.05,0v56.55A3,3,0,0,1,548.17,436.77Z" style="fill:#e0e0e0"></path><path d="M562.35,448.21a3,3,0,0,1-3-3V365.76a3,3,0,0,1,6,0v79.43A3,3,0,0,1,562.35,448.21Z" style="fill:#e0e0e0"></path><path d="M576.53,436.77a3,3,0,0,1-3-3V377.2a3,3,0,1,1,6,0v56.55A3,3,0,0,1,576.53,436.77Z" style="fill:#e0e0e0"></path><path d="M604.9,419.13a3,3,0,0,1-3-3V394.84a3,3,0,0,1,6,0v21.27A3,3,0,0,1,604.9,419.13Z" style="fill:#e0e0e0"></path><path d="M633.26,419.13a3,3,0,0,1-3-3V394.84a3,3,0,0,1,6,0v21.27A3,3,0,0,1,633.26,419.13Z" style="fill:#e0e0e0"></path><path d="M619.08,415.58a3,3,0,0,1-3-3V398.39a3,3,0,0,1,6.05,0v14.17A3,3,0,0,1,619.08,415.58Z" style="fill:#e0e0e0"></path><path d="M378,419.13a3,3,0,0,1-3-3V394.84a3,3,0,0,1,6,0v21.27A3,3,0,0,1,378,419.13Z" style="fill:#e0e0e0"></path><path d="M240.09,253.72a2.22,2.22,0,0,1-2.22-2.22v-32a2.22,2.22,0,1,1,4.44,0v32A2.22,2.22,0,0,1,240.09,253.72Z" style="fill:#f5f5f5"></path><path d="M229.68,248.71a2.22,2.22,0,0,1-2.22-2.22v-22a2.22,2.22,0,0,1,4.44,0v22A2.21,2.21,0,0,1,229.68,248.71Z" style="fill:#f5f5f5"></path><path d="M250.5,248.71a2.21,2.21,0,0,1-2.22-2.22v-22a2.22,2.22,0,0,1,4.44,0v22A2.22,2.22,0,0,1,250.5,248.71Z" style="fill:#f5f5f5"></path><path d="M260.9,244.22a2.22,2.22,0,0,1-2.22-2.22V229a2.22,2.22,0,0,1,4.44,0v13A2.21,2.21,0,0,1,260.9,244.22Z" style="fill:#f5f5f5"></path><path d="M427.4,253.72a2.23,2.23,0,0,1-2.22-2.22v-32a2.22,2.22,0,0,1,4.44,0v32A2.22,2.22,0,0,1,427.4,253.72Z" style="fill:#f5f5f5"></path><path d="M417,248.71a2.21,2.21,0,0,1-2.22-2.22v-22a2.22,2.22,0,0,1,4.44,0v22A2.22,2.22,0,0,1,417,248.71Z" style="fill:#f5f5f5"></path><path d="M437.81,248.71a2.21,2.21,0,0,1-2.22-2.22v-22a2.22,2.22,0,1,1,4.44,0v22A2.22,2.22,0,0,1,437.81,248.71Z" style="fill:#f5f5f5"></path><path d="M448.22,244.22A2.21,2.21,0,0,1,446,242V229a2.22,2.22,0,0,1,4.43,0v13A2.21,2.21,0,0,1,448.22,244.22Z" style="fill:#f5f5f5"></path><path d="M271.31,248.3a2.22,2.22,0,0,1-2.22-2.22V224.92a2.22,2.22,0,1,1,4.44,0v21.16A2.23,2.23,0,0,1,271.31,248.3Z" style="fill:#f5f5f5"></path><path d="M281.71,252.92a2.21,2.21,0,0,1-2.21-2.22V220.29a2.22,2.22,0,1,1,4.43,0V250.7A2.21,2.21,0,0,1,281.71,252.92Z" style="fill:#f5f5f5"></path><path d="M292.12,258.46a2.22,2.22,0,0,1-2.22-2.22V214.75a2.22,2.22,0,1,1,4.44,0v41.49A2.21,2.21,0,0,1,292.12,258.46Z" style="fill:#f5f5f5"></path><path d="M302.53,253.16a2.22,2.22,0,0,1-2.22-2.22V220.06a2.22,2.22,0,0,1,4.44,0v30.88A2.23,2.23,0,0,1,302.53,253.16Z" style="fill:#f5f5f5"></path><path d="M312.93,248.18a2.22,2.22,0,0,1-2.22-2.22V225a2.22,2.22,0,1,1,4.44,0V246A2.21,2.21,0,0,1,312.93,248.18Z" style="fill:#f5f5f5"></path><path d="M323.34,245.52a2.21,2.21,0,0,1-2.22-2.22V227.69a2.22,2.22,0,0,1,4.44,0V243.3A2.21,2.21,0,0,1,323.34,245.52Z" style="fill:#f5f5f5"></path><path d="M333.75,253.5a2.21,2.21,0,0,1-2.22-2.22V219.71a2.22,2.22,0,0,1,4.44,0v31.57A2.22,2.22,0,0,1,333.75,253.5Z" style="fill:#f5f5f5"></path><path d="M375.37,253.5a2.21,2.21,0,0,1-2.22-2.22V219.71a2.22,2.22,0,1,1,4.44,0v31.57A2.21,2.21,0,0,1,375.37,253.5Z" style="fill:#f5f5f5"></path><path d="M344.15,258.46a2.22,2.22,0,0,1-2.22-2.22V214.75a2.22,2.22,0,0,1,4.44,0v41.49A2.21,2.21,0,0,1,344.15,258.46Z" style="fill:#f5f5f5"></path><path d="M354.56,266.86a2.22,2.22,0,0,1-2.22-2.22V206.36a2.22,2.22,0,1,1,4.44,0v58.28A2.23,2.23,0,0,1,354.56,266.86Z" style="fill:#f5f5f5"></path><path d="M365,258.46a2.21,2.21,0,0,1-2.21-2.22V214.75a2.22,2.22,0,1,1,4.43,0v41.49A2.21,2.21,0,0,1,365,258.46Z" style="fill:#f5f5f5"></path><path d="M385.78,245.52a2.21,2.21,0,0,1-2.22-2.22V227.69a2.22,2.22,0,0,1,4.44,0V243.3A2.22,2.22,0,0,1,385.78,245.52Z" style="fill:#f5f5f5"></path><path d="M406.59,245.52a2.21,2.21,0,0,1-2.22-2.22V227.69a2.22,2.22,0,0,1,4.44,0V243.3A2.21,2.21,0,0,1,406.59,245.52Z" style="fill:#f5f5f5"></path><path d="M396.18,242.91A2.22,2.22,0,0,1,394,240.7V230.3a2.22,2.22,0,1,1,4.44,0v10.4A2.21,2.21,0,0,1,396.18,242.91Z" style="fill:#f5f5f5"></path><path d="M219.28,245.52a2.21,2.21,0,0,1-2.22-2.22V227.69a2.22,2.22,0,1,1,4.44,0V243.3A2.22,2.22,0,0,1,219.28,245.52Z" style="fill:#f5f5f5"></path><path d="M312.78,253.72a2.23,2.23,0,0,1-2.22-2.22v-32a2.22,2.22,0,0,1,4.44,0v32A2.22,2.22,0,0,1,312.78,253.72Z" style="fill:#f5f5f5"></path><path d="M302.38,248.71a2.21,2.21,0,0,1-2.22-2.22v-22a2.22,2.22,0,0,1,4.44,0v22A2.22,2.22,0,0,1,302.38,248.71Z" style="fill:#f5f5f5"></path><path d="M323.19,248.71a2.21,2.21,0,0,1-2.22-2.22v-22a2.22,2.22,0,0,1,4.44,0v22A2.21,2.21,0,0,1,323.19,248.71Z" style="fill:#f5f5f5"></path><path d="M333.6,244.22a2.21,2.21,0,0,1-2.22-2.22V229a2.22,2.22,0,0,1,4.44,0v13A2.22,2.22,0,0,1,333.6,244.22Z" style="fill:#f5f5f5"></path><path d="M500.1,253.72a2.22,2.22,0,0,1-2.22-2.22v-32a2.22,2.22,0,1,1,4.44,0v32A2.23,2.23,0,0,1,500.1,253.72Z" style="fill:#f5f5f5"></path><path d="M489.69,248.71a2.21,2.21,0,0,1-2.22-2.22v-22a2.22,2.22,0,0,1,4.44,0v22A2.21,2.21,0,0,1,489.69,248.71Z" style="fill:#f5f5f5"></path><path d="M510.5,248.71a2.22,2.22,0,0,1-2.22-2.22v-22a2.22,2.22,0,0,1,4.44,0v22A2.21,2.21,0,0,1,510.5,248.71Z" style="fill:#f5f5f5"></path><path d="M520.91,244.22a2.21,2.21,0,0,1-2.22-2.22V229a2.22,2.22,0,0,1,4.44,0v13A2.22,2.22,0,0,1,520.91,244.22Z" style="fill:#f5f5f5"></path><path d="M344,248.3a2.23,2.23,0,0,1-2.22-2.22V224.92a2.22,2.22,0,0,1,4.44,0v21.16A2.22,2.22,0,0,1,344,248.3Z" style="fill:#f5f5f5"></path><path d="M354.41,252.92a2.21,2.21,0,0,1-2.22-2.22V220.29a2.22,2.22,0,1,1,4.44,0V250.7A2.22,2.22,0,0,1,354.41,252.92Z" style="fill:#f5f5f5"></path><path d="M364.81,258.46a2.21,2.21,0,0,1-2.21-2.22V214.75a2.22,2.22,0,1,1,4.43,0v41.49A2.21,2.21,0,0,1,364.81,258.46Z" style="fill:#f5f5f5"></path><path d="M375.22,253.16a2.22,2.22,0,0,1-2.22-2.22V220.06a2.22,2.22,0,1,1,4.44,0v30.88A2.22,2.22,0,0,1,375.22,253.16Z" style="fill:#f5f5f5"></path><path d="M385.63,248.18a2.21,2.21,0,0,1-2.22-2.22V225a2.22,2.22,0,0,1,4.44,0V246A2.22,2.22,0,0,1,385.63,248.18Z" style="fill:#f5f5f5"></path><path d="M396,245.52a2.22,2.22,0,0,1-2.22-2.22V227.69a2.22,2.22,0,0,1,4.44,0V243.3A2.21,2.21,0,0,1,396,245.52Z" style="fill:#f5f5f5"></path><path d="M406.44,253.5a2.21,2.21,0,0,1-2.22-2.22V219.71a2.22,2.22,0,0,1,4.44,0v31.57A2.21,2.21,0,0,1,406.44,253.5Z" style="fill:#f5f5f5"></path><path d="M448.06,253.5a2.21,2.21,0,0,1-2.21-2.22V219.71a2.22,2.22,0,1,1,4.43,0v31.57A2.21,2.21,0,0,1,448.06,253.5Z" style="fill:#f5f5f5"></path><path d="M416.85,258.46a2.21,2.21,0,0,1-2.22-2.22V214.75a2.22,2.22,0,1,1,4.44,0v41.49A2.22,2.22,0,0,1,416.85,258.46Z" style="fill:#f5f5f5"></path><path d="M427.25,266.86a2.23,2.23,0,0,1-2.22-2.22V206.36a2.22,2.22,0,0,1,4.44,0v58.28A2.22,2.22,0,0,1,427.25,266.86Z" style="fill:#f5f5f5"></path><path d="M437.66,258.46a2.21,2.21,0,0,1-2.22-2.22V214.75a2.22,2.22,0,1,1,4.44,0v41.49A2.22,2.22,0,0,1,437.66,258.46Z" style="fill:#f5f5f5"></path><path d="M458.47,245.52a2.22,2.22,0,0,1-2.22-2.22V227.69a2.22,2.22,0,1,1,4.44,0V243.3A2.21,2.21,0,0,1,458.47,245.52Z" style="fill:#f5f5f5"></path><path d="M479.28,245.52a2.22,2.22,0,0,1-2.22-2.22V227.69a2.22,2.22,0,0,1,4.44,0V243.3A2.21,2.21,0,0,1,479.28,245.52Z" style="fill:#f5f5f5"></path><path d="M468.88,242.91a2.21,2.21,0,0,1-2.22-2.21V230.3a2.22,2.22,0,0,1,4.44,0v10.4A2.22,2.22,0,0,1,468.88,242.91Z" style="fill:#f5f5f5"></path><path d="M292,245.52a2.21,2.21,0,0,1-2.22-2.22V227.69a2.22,2.22,0,1,1,4.44,0V243.3A2.21,2.21,0,0,1,292,245.52Z" style="fill:#f5f5f5"></path><path d="M84.68,430.3a3,3,0,0,1-3-3V383.67a3,3,0,0,1,6,0v43.61A3,3,0,0,1,84.68,430.3Z" style="fill:#e0e0e0"></path><path d="M70.5,423.48a3,3,0,0,1-3-3v-30a3,3,0,0,1,6,0v30A3,3,0,0,1,70.5,423.48Z" style="fill:#e0e0e0"></path><path d="M98.86,423.48a3,3,0,0,1-3-3v-30a3,3,0,0,1,6,0v30A3,3,0,0,1,98.86,423.48Z" style="fill:#e0e0e0"></path><path d="M113,417.36a3,3,0,0,1-3-3V396.61a3,3,0,0,1,6,0v17.73A3,3,0,0,1,113,417.36Z" style="fill:#e0e0e0"></path><path d="M340,430.3a3,3,0,0,1-3-3V383.67a3,3,0,0,1,6.05,0v43.61A3,3,0,0,1,340,430.3Z" style="fill:#e0e0e0"></path><path d="M325.77,423.48a3,3,0,0,1-3-3v-30a3,3,0,0,1,6.05,0v30A3,3,0,0,1,325.77,423.48Z" style="fill:#e0e0e0"></path><path d="M354.13,423.48a3,3,0,0,1-3-3v-30a3,3,0,0,1,6,0v30A3,3,0,0,1,354.13,423.48Z" style="fill:#e0e0e0"></path><path d="M368.31,417.36a3,3,0,0,1-3-3V396.61a3,3,0,0,1,6,0v17.73A3,3,0,0,1,368.31,417.36Z" style="fill:#e0e0e0"></path><path d="M127.22,422.92a3,3,0,0,1-3-3V391.06a3,3,0,1,1,6,0v28.83A3,3,0,0,1,127.22,422.92Z" style="fill:#e0e0e0"></path><path d="M141.4,429.22a3,3,0,0,1-3-3V384.75a3,3,0,0,1,6.05,0v41.44A3,3,0,0,1,141.4,429.22Z" style="fill:#e0e0e0"></path><path d="M155.59,436.77a3,3,0,0,1-3-3V377.2a3,3,0,1,1,6.05,0v56.55A3,3,0,0,1,155.59,436.77Z" style="fill:#e0e0e0"></path><path d="M169.77,429.54a3,3,0,0,1-3-3V384.43a3,3,0,0,1,6,0v42.09A3,3,0,0,1,169.77,429.54Z" style="fill:#e0e0e0"></path><path d="M184,422.76a3,3,0,0,1-3-3V391.22a3,3,0,1,1,6,0v28.51A3,3,0,0,1,184,422.76Z" style="fill:#e0e0e0"></path><path d="M198.13,419.13a3,3,0,0,1-3-3V394.84a3,3,0,0,1,6,0v21.27A3,3,0,0,1,198.13,419.13Z" style="fill:#e0e0e0"></path><path d="M212.31,430a3,3,0,0,1-3-3V384a3,3,0,1,1,6.05,0v43A3,3,0,0,1,212.31,430Z" style="fill:#e0e0e0"></path><path d="M269,430a3,3,0,0,1-3-3V384a3,3,0,1,1,6.05,0v43A3,3,0,0,1,269,430Z" style="fill:#e0e0e0"></path><path d="M226.49,436.77a3,3,0,0,1-3-3V377.2a3,3,0,1,1,6.05,0v56.55A3,3,0,0,1,226.49,436.77Z" style="fill:#e0e0e0"></path><path d="M240.68,448.21a3,3,0,0,1-3-3V365.76a3,3,0,0,1,6,0v79.43A3,3,0,0,1,240.68,448.21Z" style="fill:#e0e0e0"></path><path d="M254.86,436.77a3,3,0,0,1-3-3V377.2a3,3,0,1,1,6,0v56.55A3,3,0,0,1,254.86,436.77Z" style="fill:#e0e0e0"></path><path d="M283.22,419.13a3,3,0,0,1-3-3V394.84a3,3,0,0,1,6.05,0v21.27A3,3,0,0,1,283.22,419.13Z" style="fill:#e0e0e0"></path><path d="M311.58,419.13a3,3,0,0,1-3-3V394.84a3,3,0,0,1,6.05,0v21.27A3,3,0,0,1,311.58,419.13Z" style="fill:#e0e0e0"></path><path d="M297.4,415.58a3,3,0,0,1-3-3V398.39a3,3,0,0,1,6.05,0v14.17A3,3,0,0,1,297.4,415.58Z" style="fill:#e0e0e0"></path><path d="M56.31,419.13a3,3,0,0,1-3-3V394.84a3,3,0,0,1,6.05,0v21.27A3,3,0,0,1,56.31,419.13Z" style="fill:#e0e0e0"></path><rect x="664.69" y="105.92" width="49.63" height="13.13" style="fill:#f5f5f5"></rect><path d="M693.33,132.88a2.07,2.07,0,0,1,0-.23l0-.68q0-.93,0-2.58c0-2.27,0-5.53-.09-9.64l.15.16-49.63.1c.11-.12-.25.25.25-.26h0v13.12l-.25-.24,35.37.11,10.44.07,2.82,0,.74,0h.26s-.07,0-.23,0l-.7,0-2.77,0-10.39.07-35.54.11h-.25V119.76h0l.25-.25,49.63.1h.16v.15c0,4.15-.07,7.44-.09,9.73,0,1.09,0,1.94,0,2.55,0,.26,0,.48,0,.65S693.34,132.89,693.33,132.88Z" style="fill:#e0e0e0"></path><rect x="360.81" y="16.51" width="49.63" height="13.13" style="fill:#f5f5f5"></rect><path d="M389.46,43.47a1.1,1.1,0,0,1,0-.24v-.67c0-.62,0-1.48,0-2.59,0-2.26-.05-5.52-.09-9.63l.16.15-49.63.1.25-.25h0V43.47l-.25-.25,35.37.12,10.44.07,2.83,0h.74l.26,0-.23,0h-.71l-2.77,0-10.38.07-35.55.11h-.25V30.36h0c.51-.51.14-.14.26-.25l49.63.1h.15v.15c0,4.15-.06,7.44-.08,9.73,0,1.09,0,1.94,0,2.55,0,.26,0,.47,0,.64A1.31,1.31,0,0,1,389.46,43.47Z" style="fill:#e0e0e0"></path><rect x="67.66" y="283.78" width="49.63" height="13.13" style="fill:#f5f5f5"></rect><path d="M96.3,310.74s0-.09,0-.24l0-.67,0-2.59c0-2.26,0-5.52-.08-9.63l.15.15-49.63.1.25-.25h0v13.11l-.25-.25L82,310.6l10.44.07,2.82,0H96l.26,0-.23,0h-.71l-2.77,0-10.38.07L46.67,311h-.25V297.63h0l.25-.25,49.63.09h.16v.16c0,4.15-.07,7.44-.09,9.72,0,1.09,0,1.94,0,2.55,0,.27,0,.48,0,.65A.85.85,0,0,1,96.3,310.74Z" style="fill:#e0e0e0"></path><path d="M684.1,281.1a2.07,2.07,0,0,1,0-.23l0-.68q0-.93,0-2.58c0-2.27,0-5.53-.09-9.64l.15.16-49.63.1.25-.26h0V281.1l-.25-.24,35.37.11,10.44.07,2.82,0,.74,0h.26s-.07,0-.23,0l-.7,0-2.77,0-10.39.07-35.54.11h-.25V268h0l.25-.25,49.63.1h.16V268c0,4.15-.07,7.44-.09,9.73,0,1.09,0,1.94,0,2.55l0,.65C684.11,281,684.11,281.11,684.1,281.1Z" style="fill:#e0e0e0"></path><path d="M690.83,268s0-.09,0-.25,0-.41,0-.69c0-.65,0-1.53,0-2.63,0-2.31-.06-5.56-.1-9.56l.18.18L661,255.1c-.22.22.31-.31.25-.26h0v6.76c0,2.19,0,4.32,0,6.36l-.24-.24,21.33.12,6.22.06,1.67,0,.6,0a3.35,3.35,0,0,1-.54,0l-1.62,0-6.16.07-21.5.11h-.24V268c0-2,0-4.17,0-6.36v-6.76h0l.25-.25,29.82.07H691v.18c0,4-.08,7.34-.1,9.67,0,1.09,0,1.95,0,2.59A5,5,0,0,1,690.83,268Z" style="fill:#e0e0e0"></path><path d="M94.24,116.87s0-.09,0-.24,0-.4,0-.67c0-.62,0-1.48,0-2.59,0-2.26-.05-5.52-.09-9.63l.15.15-49.63.1.25-.25h0v13.11l-.25-.25,35.37.12,10.44.07,2.82,0H94a1.33,1.33,0,0,1,.26,0s-.07,0-.23,0h-.7l-2.77,0L80.15,117l-35.54.11h-.25V103.76h0l.25-.25,49.63.1h.16v.15c0,4.15-.07,7.44-.09,9.73,0,1.09,0,1.94,0,2.55,0,.26,0,.47,0,.64S94.25,116.88,94.24,116.87Z" style="fill:#e0e0e0"></path><path d="M101,103.74s0-.09,0-.25,0-.42,0-.7c0-.64,0-1.52,0-2.63,0-2.3-.06-5.55-.1-9.55l.18.18-29.82.07c-.22.23.31-.31.25-.25h0v6.74c0,2.2,0,4.33,0,6.37l-.24-.24,21.33.11,6.22.07,1.67,0,.6,0a3.35,3.35,0,0,1-.54,0l-1.62,0-6.16.07-21.5.11h-.24v-.24c0-2,0-4.17,0-6.37V90.63h0c-.06,0,.48-.48.25-.25l29.82.07h.19v.18c0,4-.08,7.33-.1,9.66,0,1.09,0,2,0,2.59A5.15,5.15,0,0,1,101,103.74Z" style="fill:#e0e0e0"></path></g><g id="freepik--Floor--inject-4"><path d="M675.5,473.34c0,.14-135.93.26-303.56.26s-303.59-.12-303.59-.26,135.9-.26,303.59-.26S675.5,473.19,675.5,473.34Z" style="fill:#263238"></path></g><g id="freepik--Device--inject-4"><path d="M448.32,473.94l-140.69-.65a30.75,30.75,0,0,1-30.51-31l1.5-354.91A30.73,30.73,0,0,1,309.4,56.7l140.69.65a30.75,30.75,0,0,1,30.51,31l-1.49,354.91A30.74,30.74,0,0,1,448.32,473.94Z" style="fill:#263238"></path><path d="M449.89,69.6l-27.27-.12L343,69.11l-9.59,0L309.48,69a21.54,21.54,0,0,0-21.56,21.51l-1.45,346.42a21.54,21.54,0,0,0,21.36,21.69l140.41.65a21.53,21.53,0,0,0,21.56-21.51l1.46-346.42A21.54,21.54,0,0,0,449.89,69.6Z" style="fill:#fff"></path><path d="M453.61,95.75a1.74,1.74,0,1,1-3.48,0,1.74,1.74,0,0,1,3.48,0Z" style="fill:#e0e0e0"></path><path d="M453.59,102a1.74,1.74,0,1,1-3.48,0,1.74,1.74,0,0,1,3.48,0Z" style="fill:#e0e0e0"></path><path d="M453.56,108.27a1.74,1.74,0,1,1-1.73-1.74A1.74,1.74,0,0,1,453.56,108.27Z" style="fill:#e0e0e0"></path><circle cx="315" cy="100.99" r="11.49" transform="translate(144.01 384.16) rotate(-76.65)" style="fill:#e0e0e0"></circle><rect x="351.18" y="99.68" width="66.57" height="7.89" rx="3.2" style="fill:#e0e0e0"></rect></g><g id="freepik--voice-chat--inject-4"><rect x="221.52" y="147.39" width="243.49" height="63" rx="29.91" style="fill:#fafafa"></rect><path d="M435.1,210.89H251.43A30.45,30.45,0,0,1,221,180.47V177.3a30.44,30.44,0,0,1,30.41-30.41H435.1a30.44,30.44,0,0,1,30.41,30.41v3.17A30.45,30.45,0,0,1,435.1,210.89Zm-183.67-63A29.44,29.44,0,0,0,222,177.3v3.17a29.45,29.45,0,0,0,29.41,29.42H435.1a29.45,29.45,0,0,0,29.41-29.42V177.3a29.45,29.45,0,0,0-29.41-29.41Z" style="fill:#263238"></path><path d="M296.4,192.39a1.5,1.5,0,0,1-1.5-1.5v-23a1.5,1.5,0,1,1,3,0v23A1.5,1.5,0,0,1,296.4,192.39Z" style="fill:#004CFF"></path><path d="M288.93,188.8a1.5,1.5,0,0,1-1.5-1.5V171.51a1.5,1.5,0,0,1,3,0V187.3A1.5,1.5,0,0,1,288.93,188.8Z" style="fill:#004CFF"></path><path d="M303.87,188.8a1.5,1.5,0,0,1-1.5-1.5V171.51a1.5,1.5,0,0,1,3,0V187.3A1.5,1.5,0,0,1,303.87,188.8Z" style="fill:#004CFF"></path><path d="M311.34,185.57a1.5,1.5,0,0,1-1.5-1.5v-9.33a1.5,1.5,0,0,1,3,0v9.33A1.5,1.5,0,0,1,311.34,185.57Z" style="fill:#004CFF"></path><path d="M430.85,192.39a1.5,1.5,0,0,1-1.5-1.5v-23a1.5,1.5,0,1,1,3,0v23A1.5,1.5,0,0,1,430.85,192.39Z" style="fill:#004CFF"></path><path d="M423.38,188.8a1.5,1.5,0,0,1-1.5-1.5V171.51a1.5,1.5,0,0,1,3,0V187.3A1.5,1.5,0,0,1,423.38,188.8Z" style="fill:#004CFF"></path><path d="M438.32,188.8a1.5,1.5,0,0,1-1.5-1.5V171.51a1.5,1.5,0,1,1,3,0V187.3A1.5,1.5,0,0,1,438.32,188.8Z" style="fill:#004CFF"></path><path d="M445.78,185.57a1.5,1.5,0,0,1-1.5-1.5v-9.33a1.5,1.5,0,0,1,3,0v9.33A1.5,1.5,0,0,1,445.78,185.57Z" style="fill:#004CFF"></path><path d="M318.81,188.5a1.5,1.5,0,0,1-1.5-1.5V171.81a1.5,1.5,0,0,1,3,0V187A1.5,1.5,0,0,1,318.81,188.5Z" style="fill:#004CFF"></path><path d="M326.28,191.82a1.5,1.5,0,0,1-1.5-1.5V168.49a1.5,1.5,0,0,1,3,0v21.83A1.5,1.5,0,0,1,326.28,191.82Z" style="fill:#004CFF"></path><path d="M333.75,195.8a1.5,1.5,0,0,1-1.5-1.5V164.51a1.5,1.5,0,0,1,3,0V194.3A1.5,1.5,0,0,1,333.75,195.8Z" style="fill:#004CFF"></path><path d="M341.22,192a1.5,1.5,0,0,1-1.5-1.5V168.32a1.5,1.5,0,0,1,3,0v22.17A1.5,1.5,0,0,1,341.22,192Z" style="fill:#004CFF"></path><path d="M348.68,188.42a1.51,1.51,0,0,1-1.5-1.5v-15a1.5,1.5,0,0,1,3,0v15A1.5,1.5,0,0,1,348.68,188.42Z" style="fill:#004CFF"></path><path d="M356.15,186.51a1.51,1.51,0,0,1-1.5-1.5v-11.2a1.5,1.5,0,0,1,3,0V185A1.5,1.5,0,0,1,356.15,186.51Z" style="fill:#004CFF"></path><path d="M363.62,192.23a1.5,1.5,0,0,1-1.5-1.5V168.08a1.5,1.5,0,0,1,3,0v22.65A1.5,1.5,0,0,1,363.62,192.23Z" style="fill:#004CFF"></path><path d="M393.5,192.23a1.5,1.5,0,0,1-1.5-1.5V168.08a1.5,1.5,0,0,1,3,0v22.65A1.5,1.5,0,0,1,393.5,192.23Z" style="fill:#004CFF"></path><path d="M371.09,195.8a1.5,1.5,0,0,1-1.5-1.5V164.51a1.5,1.5,0,1,1,3,0V194.3A1.5,1.5,0,0,1,371.09,195.8Z" style="fill:#004CFF"></path><path d="M378.56,201.82a1.5,1.5,0,0,1-1.5-1.5V158.49a1.5,1.5,0,1,1,3,0v41.83A1.5,1.5,0,0,1,378.56,201.82Z" style="fill:#004CFF"></path><path d="M386,195.8a1.5,1.5,0,0,1-1.5-1.5V164.51a1.5,1.5,0,0,1,3,0V194.3A1.5,1.5,0,0,1,386,195.8Z" style="fill:#004CFF"></path><path d="M401,186.51a1.5,1.5,0,0,1-1.5-1.5v-11.2a1.5,1.5,0,1,1,3,0V185A1.5,1.5,0,0,1,401,186.51Z" style="fill:#004CFF"></path><path d="M415.91,186.51a1.5,1.5,0,0,1-1.5-1.5v-11.2a1.5,1.5,0,0,1,3,0V185A1.5,1.5,0,0,1,415.91,186.51Z" style="fill:#004CFF"></path><path d="M408.44,184.64a1.5,1.5,0,0,1-1.5-1.5v-7.47a1.5,1.5,0,0,1,3,0v7.47A1.5,1.5,0,0,1,408.44,184.64Z" style="fill:#004CFF"></path><path d="M281.46,186.51A1.5,1.5,0,0,1,280,185v-11.2a1.5,1.5,0,0,1,3,0V185A1.5,1.5,0,0,1,281.46,186.51Z" style="fill:#004CFF"></path><circle cx="251.77" cy="178.76" r="21.19" style="fill:#004CFF"></circle><path d="M246.16,179.41v-6.18a2.09,2.09,0,0,1,3.13-1.81l5.35,3.09L260,177.6a2.08,2.08,0,0,1,0,3.61l-5.35,3.09-5.35,3.09a2.09,2.09,0,0,1-3.13-1.81Z" style="fill:#fff"></path><rect x="234.02" y="323.67" width="243.49" height="63" rx="29.91" style="fill:#fafafa"></rect><path d="M447.6,387.17H263.94a30.45,30.45,0,0,1-30.42-30.41v-3.18a30.45,30.45,0,0,1,30.42-30.41H447.6A30.44,30.44,0,0,1,478,353.58v3.18A30.44,30.44,0,0,1,447.6,387.17Zm-183.66-63a29.45,29.45,0,0,0-29.42,29.41v3.18a29.45,29.45,0,0,0,29.42,29.41H447.6A29.44,29.44,0,0,0,477,356.76v-3.18a29.45,29.45,0,0,0-29.41-29.41Z" style="fill:#263238"></path><path d="M308.91,368.67a1.5,1.5,0,0,1-1.5-1.5v-23a1.5,1.5,0,0,1,3,0v23A1.5,1.5,0,0,1,308.91,368.67Z" style="fill:#004CFF"></path><path d="M301.44,365.08a1.5,1.5,0,0,1-1.5-1.5V347.8a1.5,1.5,0,0,1,3,0v15.78A1.5,1.5,0,0,1,301.44,365.08Z" style="fill:#004CFF"></path><path d="M316.38,365.08a1.5,1.5,0,0,1-1.5-1.5V347.8a1.5,1.5,0,0,1,3,0v15.78A1.5,1.5,0,0,1,316.38,365.08Z" style="fill:#004CFF"></path><path d="M323.84,361.86a1.51,1.51,0,0,1-1.5-1.5V351a1.5,1.5,0,0,1,3,0v9.34A1.5,1.5,0,0,1,323.84,361.86Z" style="fill:#004CFF"></path><path d="M443.35,368.67a1.5,1.5,0,0,1-1.5-1.5v-23a1.5,1.5,0,1,1,3,0v23A1.5,1.5,0,0,1,443.35,368.67Z" style="fill:#e0e0e0"></path><path d="M435.88,365.08a1.5,1.5,0,0,1-1.5-1.5V347.8a1.5,1.5,0,0,1,3,0v15.78A1.5,1.5,0,0,1,435.88,365.08Z" style="fill:#e0e0e0"></path><path d="M450.82,365.08a1.5,1.5,0,0,1-1.5-1.5V347.8a1.5,1.5,0,0,1,3,0v15.78A1.5,1.5,0,0,1,450.82,365.08Z" style="fill:#e0e0e0"></path><path d="M458.29,361.86a1.5,1.5,0,0,1-1.5-1.5V351a1.5,1.5,0,0,1,3,0v9.34A1.5,1.5,0,0,1,458.29,361.86Z" style="fill:#e0e0e0"></path><path d="M331.31,364.78a1.5,1.5,0,0,1-1.5-1.5V348.1a1.5,1.5,0,0,1,3,0v15.18A1.5,1.5,0,0,1,331.31,364.78Z" style="fill:#004CFF"></path><path d="M338.78,368.1a1.5,1.5,0,0,1-1.5-1.5V344.78a1.5,1.5,0,0,1,3,0V366.6A1.5,1.5,0,0,1,338.78,368.1Z" style="fill:#004CFF"></path><path d="M346.25,372.08a1.5,1.5,0,0,1-1.5-1.5V340.8a1.5,1.5,0,1,1,3,0v29.78A1.5,1.5,0,0,1,346.25,372.08Z" style="fill:#004CFF"></path><path d="M353.72,368.27a1.5,1.5,0,0,1-1.5-1.5V344.61a1.5,1.5,0,0,1,3,0v22.16A1.5,1.5,0,0,1,353.72,368.27Z" style="fill:#e0e0e0"></path><path d="M361.19,364.7a1.5,1.5,0,0,1-1.5-1.5v-15a1.5,1.5,0,0,1,3,0v15A1.5,1.5,0,0,1,361.19,364.7Z" style="fill:#e0e0e0"></path><path d="M368.66,362.79a1.5,1.5,0,0,1-1.5-1.5v-11.2a1.5,1.5,0,0,1,3,0v11.2A1.5,1.5,0,0,1,368.66,362.79Z" style="fill:#e0e0e0"></path><path d="M376.13,368.52a1.5,1.5,0,0,1-1.5-1.5V344.36a1.5,1.5,0,0,1,3,0V367A1.5,1.5,0,0,1,376.13,368.52Z" style="fill:#e0e0e0"></path><path d="M406,368.52a1.5,1.5,0,0,1-1.5-1.5V344.36a1.5,1.5,0,0,1,3,0V367A1.5,1.5,0,0,1,406,368.52Z" style="fill:#e0e0e0"></path><path d="M383.6,372.08a1.5,1.5,0,0,1-1.5-1.5V340.8a1.5,1.5,0,0,1,3,0v29.78A1.5,1.5,0,0,1,383.6,372.08Z" style="fill:#e0e0e0"></path><path d="M391.07,378.11a1.5,1.5,0,0,1-1.5-1.5V334.77a1.5,1.5,0,0,1,3,0v41.84A1.5,1.5,0,0,1,391.07,378.11Z" style="fill:#e0e0e0"></path><path d="M398.54,372.08a1.5,1.5,0,0,1-1.5-1.5V340.8a1.5,1.5,0,0,1,3,0v29.78A1.5,1.5,0,0,1,398.54,372.08Z" style="fill:#e0e0e0"></path><path d="M413.48,362.79a1.5,1.5,0,0,1-1.5-1.5v-11.2a1.5,1.5,0,1,1,3,0v11.2A1.5,1.5,0,0,1,413.48,362.79Z" style="fill:#e0e0e0"></path><path d="M428.41,362.79a1.5,1.5,0,0,1-1.5-1.5v-11.2a1.5,1.5,0,0,1,3,0v11.2A1.5,1.5,0,0,1,428.41,362.79Z" style="fill:#e0e0e0"></path><path d="M420.94,360.92a1.5,1.5,0,0,1-1.5-1.5V352a1.5,1.5,0,0,1,3,0v7.46A1.5,1.5,0,0,1,420.94,360.92Z" style="fill:#e0e0e0"></path><path d="M294,362.79a1.5,1.5,0,0,1-1.5-1.5v-11.2a1.5,1.5,0,1,1,3,0v11.2A1.5,1.5,0,0,1,294,362.79Z" style="fill:#004CFF"></path><circle cx="264.27" cy="355.05" r="21.19" transform="translate(-143.3 527.61) rotate(-76.29)" style="fill:#004CFF"></circle><path d="M258.67,355.69v-6.17a2.08,2.08,0,0,1,3.13-1.81l5.35,3.08,5.34,3.09a2.09,2.09,0,0,1,0,3.62l-5.34,3.09-5.35,3.08a2.08,2.08,0,0,1-3.13-1.81Z" style="fill:#fff"></path><rect x="299.66" y="238.85" width="243.49" height="63" rx="29.91" style="fill:#fafafa"></rect><path d="M513.23,302.35H329.57a30.44,30.44,0,0,1-30.41-30.41v-3.18a30.44,30.44,0,0,1,30.41-30.41H513.23a30.45,30.45,0,0,1,30.42,30.41v3.18A30.45,30.45,0,0,1,513.23,302.35Zm-183.66-63a29.45,29.45,0,0,0-29.41,29.41v3.18a29.44,29.44,0,0,0,29.41,29.41H513.23a29.45,29.45,0,0,0,29.42-29.41v-3.18a29.45,29.45,0,0,0-29.42-29.41Z" style="fill:#263238"></path><circle cx="329.9" cy="270.22" r="21.19" transform="translate(-81.59 158.3) rotate(-24.1)" style="fill:#455a64"></circle><path d="M324.3,270.87V264.7a2.08,2.08,0,0,1,3.13-1.81l5.35,3.08,5.34,3.09a2.09,2.09,0,0,1,0,3.62l-5.34,3.08-5.35,3.09A2.08,2.08,0,0,1,324.3,277Z" style="fill:#fff"></path><path d="M374.33,284.36a1.5,1.5,0,0,1-1.5-1.5v-24a1.5,1.5,0,0,1,3,0v24A1.5,1.5,0,0,1,374.33,284.36Z" style="fill:#455a64"></path><path d="M366.45,280.61a1.5,1.5,0,0,1-1.5-1.5V262.63a1.5,1.5,0,0,1,3,0v16.48A1.5,1.5,0,0,1,366.45,280.61Z" style="fill:#455a64"></path><path d="M468.85,284.36a1.5,1.5,0,0,1-1.5-1.5v-24a1.5,1.5,0,0,1,3,0v24A1.51,1.51,0,0,1,468.85,284.36Z" style="fill:#455a64"></path><path d="M461,280.61a1.5,1.5,0,0,1-1.5-1.5V262.63a1.5,1.5,0,0,1,3,0v16.48A1.5,1.5,0,0,1,461,280.61Z" style="fill:#455a64"></path><path d="M476.72,280.61a1.5,1.5,0,0,1-1.5-1.5V262.63a1.5,1.5,0,0,1,3,0v16.48A1.5,1.5,0,0,1,476.72,280.61Z" style="fill:#455a64"></path><path d="M484.6,277.24a1.5,1.5,0,0,1-1.5-1.5V266a1.5,1.5,0,0,1,3,0v9.74A1.5,1.5,0,0,1,484.6,277.24Z" style="fill:#455a64"></path><path d="M500.13,284.36a1.5,1.5,0,0,1-1.5-1.5v-24a1.5,1.5,0,0,1,3,0v24A1.5,1.5,0,0,1,500.13,284.36Z" style="fill:#455a64"></path><path d="M492.26,280.61a1.5,1.5,0,0,1-1.5-1.5V262.63a1.5,1.5,0,0,1,3,0v16.48A1.51,1.51,0,0,1,492.26,280.61Z" style="fill:#455a64"></path><path d="M508,280.61a1.5,1.5,0,0,1-1.5-1.5V262.63a1.5,1.5,0,0,1,3,0v16.48A1.5,1.5,0,0,1,508,280.61Z" style="fill:#455a64"></path><path d="M515.88,277.24a1.5,1.5,0,0,1-1.5-1.5V266a1.5,1.5,0,0,1,3,0v9.74A1.5,1.5,0,0,1,515.88,277.24Z" style="fill:#455a64"></path><path d="M523,275.88a1.5,1.5,0,0,1-1.5-1.5V269a1.5,1.5,0,0,1,3,0v5.4A1.5,1.5,0,0,1,523,275.88Z" style="fill:#455a64"></path><path d="M405.83,284.19a1.5,1.5,0,0,1-1.5-1.5V259a1.5,1.5,0,0,1,3,0v23.65A1.5,1.5,0,0,1,405.83,284.19Z" style="fill:#455a64"></path><path d="M382.21,287.91a1.5,1.5,0,0,1-1.5-1.5V255.32a1.5,1.5,0,0,1,3,0v31.09A1.5,1.5,0,0,1,382.21,287.91Z" style="fill:#455a64"></path><path d="M390.08,294.2a1.5,1.5,0,0,1-1.5-1.5V249a1.5,1.5,0,0,1,3,0V292.7A1.5,1.5,0,0,1,390.08,294.2Z" style="fill:#455a64"></path><path d="M398,287.91a1.5,1.5,0,0,1-1.5-1.5V255.32a1.5,1.5,0,0,1,3,0v31.09A1.5,1.5,0,0,1,398,287.91Z" style="fill:#455a64"></path><path d="M421.59,284.36a1.5,1.5,0,0,1-1.5-1.5v-24a1.5,1.5,0,0,1,3,0v24A1.5,1.5,0,0,1,421.59,284.36Z" style="fill:#455a64"></path><path d="M413.71,280.61a1.5,1.5,0,0,1-1.5-1.5V262.63a1.5,1.5,0,0,1,3,0v16.48A1.5,1.5,0,0,1,413.71,280.61Z" style="fill:#455a64"></path><path d="M453.09,284.19a1.5,1.5,0,0,1-1.5-1.5V259a1.5,1.5,0,0,1,3,0v23.65A1.5,1.5,0,0,1,453.09,284.19Z" style="fill:#455a64"></path><path d="M429.46,287.91a1.5,1.5,0,0,1-1.5-1.5V255.32a1.5,1.5,0,0,1,3,0v31.09A1.5,1.5,0,0,1,429.46,287.91Z" style="fill:#455a64"></path><path d="M437.34,294.2a1.5,1.5,0,0,1-1.5-1.5V249a1.5,1.5,0,0,1,3,0V292.7A1.5,1.5,0,0,1,437.34,294.2Z" style="fill:#455a64"></path><path d="M445.22,287.91a1.5,1.5,0,0,1-1.5-1.5V255.32a1.5,1.5,0,1,1,3,0v31.09A1.5,1.5,0,0,1,445.22,287.91Z" style="fill:#455a64"></path><path d="M358.58,278.22a1.5,1.5,0,0,1-1.5-1.5V265a1.5,1.5,0,0,1,3,0v11.7A1.5,1.5,0,0,1,358.58,278.22Z" style="fill:#455a64"></path></g><g id="freepik--character-2--inject-4"><path d="M511.73,168.89a37.4,37.4,0,0,0,5,5.54c2,1.51,3.65,1.47,5.45,4.59s3.88,6.38,3.88,6.38,14.84,6.8,14.55,7l-9,13.69L516,194.1,498.54,189l-9.07-9.38.27-1-1.21-2s.56-2.78,3-1.4c0,0-1-2.91,2.57-1.64s10.49,5.16,10.95,5.14,6.64.78,6.64.78l2.67-.95a7.36,7.36,0,0,1-3.52-2.93c-1.1-2-2.83-3-2-5.05A2.64,2.64,0,0,1,511.73,168.89Z" style="fill:#ffbf9d"></path><path d="M516.89,185.79a4.78,4.78,0,0,1-1-.17,14.67,14.67,0,0,0-2.7-.12,39,39,0,0,0-9,1.74l-.08,0-.08,0-1.94-.72-1-.36-.08,0,0-.07c-.74-1.19-1.45-2.34-2.13-3.42a2.48,2.48,0,0,0-1.2-1.12,1.55,1.55,0,0,0-1.4.25l.07-.21c.9,3.79,1.27,6.33,1.11,6.35s-.12-.62-.39-1.71-.64-2.66-1.12-4.54l0-.13.1-.08a2,2,0,0,1,1.8-.36,3,3,0,0,1,1.47,1.3l2.14,3.39-.12-.1,1,.36,1.94.73h-.16a35,35,0,0,1,9.12-1.59,11.62,11.62,0,0,1,2.74.28A3.33,3.33,0,0,1,516.89,185.79Z" style="fill:#ff9a6c"></path><path d="M502.92,181.56a41.42,41.42,0,0,1-5.76-3.09,42.46,42.46,0,0,1-5.5-3.53,42.07,42.07,0,0,1,5.76,3.09A43.34,43.34,0,0,1,502.92,181.56Z" style="fill:#ff9a6c"></path><path d="M495.45,181.73c-.05.05-.35-.23-.81-.69a13,13,0,0,0-1.87-1.64,5.1,5.1,0,0,0-2.25-.85c-.62-.06-1,0-1-.05s.36-.28,1-.3a4.36,4.36,0,0,1,2.52.78,8.06,8.06,0,0,1,1.86,1.82C495.3,181.33,495.5,181.69,495.45,181.73Z" style="fill:#ff9a6c"></path><path d="M506.39,179.71a13.13,13.13,0,0,0-2.47,2.47,13.5,13.5,0,0,0-1.32,3.23c-.06,0-.13-.41,0-1.08a5.89,5.89,0,0,1,.94-2.43,6,6,0,0,1,1.87-1.81C506,179.75,506.36,179.65,506.39,179.71Z" style="fill:#ff9a6c"></path><path d="M568,149.92l-1.84.37A18.76,18.76,0,0,0,558,164.14c-.63,5.65-3.11,33.26-3.11,33.26l-17-8.66-11.53,20.9s24.55,20.86,29.74,22.83c10.19,3.86,16.39-5.25,16.39-5.25Z" style="fill:#455a64"></path><path d="M541.26,188.6c-2-.81-3.88-1.66-5.64-.49a14.18,14.18,0,0,0-4,4.83c-3.24,5.45-5.44,9.35-8.68,14.81l3.38,3.45c2.67,2.32,6.27,2.82,7.84-.08,1.15-2.11,1.56-2.25,2.77-4.33l6.55-11.22a8.73,8.73,0,0,0,1.35-3.29C545.1,190.24,543.23,189.41,541.26,188.6Z" style="fill:#455a64"></path><path d="M544.32,193a3.21,3.21,0,0,1-.26.94c-.2.59-.51,1.44-.93,2.48-.83,2.07-2.08,4.9-3.65,7.92-.79,1.51-1.55,2.95-2.36,4.21a14.28,14.28,0,0,1-2.54,3,7.42,7.42,0,0,1-2.29,1.37,2.47,2.47,0,0,1-1,.22,10.4,10.4,0,0,0,3-1.87,15.43,15.43,0,0,0,2.38-3c.77-1.24,1.51-2.68,2.3-4.19,1.56-3,2.86-5.8,3.77-7.83A33.15,33.15,0,0,1,544.32,193Z" style="fill:#263238"></path><path d="M559.13,217c-.09,0,0-1.18,0-3.06a35.64,35.64,0,0,0-.92-7.28,36.14,36.14,0,0,0-2.42-6.92,30.1,30.1,0,0,1-1.32-2.76s.21.22.51.66a21.1,21.1,0,0,1,1.14,1.94,29.43,29.43,0,0,1,2.6,7,28.71,28.71,0,0,1,.77,7.4,18.22,18.22,0,0,1-.17,2.25A2.78,2.78,0,0,1,559.13,217Z" style="fill:#263238"></path><path d="M591.17,439.22l1,22.38s-22.38,8.57-22.59,12.72l43.44-.46-.19-34.92Z" style="fill:#455a64"></path><path d="M605.63,459.57a1.78,1.78,0,0,1,1.25,2,1.72,1.72,0,0,1-2,1.26,1.88,1.88,0,0,1-1.31-2.14,1.77,1.77,0,0,1,2.21-1.08" style="fill:#e0e0e0"></path><path d="M613.06,473.86l-.15-3.52-41.6,1.76s-1.93.86-1.69,2.22Z" style="fill:#263238"></path><path d="M591.51,461.38c0,.21,1.07.3,2.12,1s1.62,1.56,1.81,1.47-.13-1.31-1.42-2.1S591.46,461.19,591.51,461.38Z" style="fill:#fff"></path><path d="M587,463.31c-.05.21.88.56,1.61,1.45s.95,1.84,1.16,1.83.33-1.22-.6-2.31S587,463.11,587,463.31Z" style="fill:#fff"></path><path d="M584.44,468.8c.19,0,.48-1-.08-2.18s-1.55-1.61-1.64-1.43.53.79,1,1.75S584.23,468.78,584.44,468.8Z" style="fill:#fff"></path><path d="M591.84,456.26c.09.19,1.06-.11,2.26,0s2.14.43,2.25.25-.8-.93-2.22-1S591.73,456.09,591.84,456.26Z" style="fill:#fff"></path><path d="M642.08,436.83l2.35,27-4.29,21.89a2.77,2.77,0,0,0,2.38,3.29h0a2.77,2.77,0,0,0,2.38-.87c3.88-4.22,17.63-20,17.63-21.46,0-2.3-.46-29-.46-29Z" style="fill:#455a64"></path><path d="M642.52,489l20-24.49.08,1.15a4.38,4.38,0,0,1-.82,2.77c-1.59,2.12-6.1,7.9-16.82,19.69a2.75,2.75,0,0,1-2.46.88Z" style="fill:#263238"></path><path d="M656.44,456.15a1.66,1.66,0,0,0-.32,2.21,1.61,1.61,0,0,0,2.19.34,1.77,1.77,0,0,0,.33-2.35,1.69,1.69,0,0,0-2.33-.1" style="fill:#e0e0e0"></path><path d="M647.94,476.79a8.45,8.45,0,0,0-2.51-2,8.59,8.59,0,0,0-3.15-.4c0-.06.3-.3.93-.43a4.44,4.44,0,0,1,4.37,1.82C647.94,476.36,648,476.76,647.94,476.79Z" style="fill:#fff"></path><path d="M646.24,480.53a22.8,22.8,0,0,0-2.47-1,24.23,24.23,0,0,0-2.66-.17,3.11,3.11,0,0,1,2.8-.41C645.53,479.31,646.38,480.45,646.24,480.53Z" style="fill:#fff"></path><path d="M651.22,471.92a26.11,26.11,0,0,0-3.7-1.82c-2.16-.71-4.06-.5-4.07-.68a6.16,6.16,0,0,1,4.25.12C650,470.27,651.35,471.83,651.22,471.92Z" style="fill:#fff"></path><path d="M651.2,463.65c-.07.17-1.6-.36-3.55-.31s-3.46.63-3.53.46a5.34,5.34,0,0,1,3.52-1.05A5.45,5.45,0,0,1,651.2,463.65Z" style="fill:#fff"></path><path d="M650.71,455.71a13.83,13.83,0,0,0-3.69-.42c-2,.18-3.42,1.28-3.52,1.13s.22-.41.82-.81a6,6,0,0,1,2.65-.91,5.88,5.88,0,0,1,2.77.38C650.4,455.35,650.74,455.65,650.71,455.71Z" style="fill:#fff"></path><path d="M647,453.78a2.29,2.29,0,0,1-.11-1,7.22,7.22,0,0,1,.64-2.73,3.16,3.16,0,0,1,1.26-1.59,1.11,1.11,0,0,1,1.27.16,1.86,1.86,0,0,1,.51,1.2,3.93,3.93,0,0,1-3.2,3.84,4.55,4.55,0,0,1-4.62-2.09,1.58,1.58,0,0,1-.16-1.3,1.1,1.1,0,0,1,1.11-.66,3.82,3.82,0,0,1,1.84.82,7.77,7.77,0,0,1,2,2,2.5,2.5,0,0,1,.48.91,12.3,12.3,0,0,0-2.69-2.54,3.54,3.54,0,0,0-1.63-.67.57.57,0,0,0-.6.35,1.1,1.1,0,0,0,.15.85,4.08,4.08,0,0,0,4,1.77,3.42,3.42,0,0,0,2.76-3.23,1.3,1.3,0,0,0-.32-.84.61.61,0,0,0-.7-.11,2.92,2.92,0,0,0-1.09,1.33A10.39,10.39,0,0,0,647,453.78Z" style="fill:#fff"></path><path d="M663.49,454l-8-93.25-9.31-89.48-3.5-26-74.72,6a96.43,96.43,0,0,0-2.1,28.3c0,.31.11,1.07.23,2.21l-.49-.19s1.52,45.28,3.26,57.68,4.79,31.4,7,39c2.31,8,3.23,35.22,3.41,42.35.1,3.88.73,14.75,2.84,21.48a9.91,9.91,0,0,0,8.51,6.89h0l.91,5.85,22.5-2.9-7-139.64c0-1.06,1.31-1.1,2.35-1.3a1.29,1.29,0,0,1,1.11.29c2.84,23.4,8,65.95,9.68,70.65,2.3,6.43,7,48.56,10.59,58.18,2.79,7.4,10.37,10.08,10.37,10.08l.56,3.6Z" style="fill:#263238"></path><path d="M645.66,370.62a66.31,66.31,0,0,1-5.59-6,67.59,67.59,0,0,1-5.22-6.3,67,67,0,0,1,5.59,6A68.84,68.84,0,0,1,645.66,370.62Z" style="fill:#455a64"></path><path d="M590.65,362.27a25.6,25.6,0,0,1-2.5,4.31,25.2,25.2,0,0,1-2.91,4,24.75,24.75,0,0,1,2.5-4.31A24.11,24.11,0,0,1,590.65,362.27Z" style="fill:#455a64"></path><path d="M573.94,83.62a16.65,16.65,0,0,1,3.91-5.42,7.79,7.79,0,0,1,6.22-2,5.14,5.14,0,0,1,4.29,4.51l1.61.61c-3.24,1.76-5.18,5.2-6.61,8.6s-1.53,6.66-3.85,9.52c-1.68-2.34-3.69-4.83-3.78-7.71a8,8,0,0,0-1,5.62,8.1,8.1,0,0,1-2.9-6.63A17,17,0,0,1,573.94,83.62Z" style="fill:#263238"></path><path d="M586.3,78c1.73-7.61,11.53-8.52,17.79-8.26s12.1,3.54,16.4,8,7.23,10,9.64,15.65l-4.54.54a2.91,2.91,0,0,1,3,2,7.75,7.75,0,0,1,.09,3.8,58.38,58.38,0,0,1-1.94,9c-2.41,7.66-7.14,14.38-11.8,21-1.1-6,.11-12.15,1.5-18.08.49-2.11,1-4.36.25-6.39a8.61,8.61,0,0,0-4-4.15c-1.73-1-3.61-1.64-5.33-2.62a16.36,16.36,0,0,1-7.71-10.21Z" style="fill:#263238"></path><path d="M619.37,99.58l-3.24,45.47c-.55,7.73-2.93,19-15.12,17.56h0c-10.48-2-12.45-12.29-11.93-19.5.25-3.43.44-6.28.45-6.63,0,0-11.5-1.92-11.52-13.43,0-5.57.9-17,1.84-27.4a21.45,21.45,0,0,1,21.6-19.49h1.11C614.53,77,620.52,87.63,619.37,99.58Z" style="fill:#ffbf9d"></path><path d="M589.53,136.48a27.83,27.83,0,0,0,15-4.28s-3.75,8.37-15.23,7.22Z" style="fill:#ff9a6c"></path><path d="M599,102c.21.25,1.62-.7,3.54-.59s3.27,1.17,3.5.94-.1-.55-.69-1a4.71,4.71,0,0,0-2.78-1,4.58,4.58,0,0,0-2.83.77C599.13,101.44,598.91,101.86,599,102Z" style="fill:#263238"></path><path d="M598.05,107.12a1.54,1.54,0,0,0,1.48,1.58,1.48,1.48,0,0,0,1.62-1.38,1.55,1.55,0,0,0-1.48-1.59A1.48,1.48,0,0,0,598.05,107.12Z" style="fill:#263238"></path><path d="M593.1,114.9a11.91,11.91,0,0,0-2.87-.55c-.45,0-.88-.15-1-.45a2.29,2.29,0,0,1,.32-1.34c.43-1.09.89-2.23,1.37-3.43,1.91-4.88,3.29-8.89,3.09-9s-1.9,3.82-3.81,8.7c-.46,1.2-.9,2.35-1.31,3.45a2.61,2.61,0,0,0-.26,1.77,1.14,1.14,0,0,0,.74.67,2.85,2.85,0,0,0,.77.11A11.45,11.45,0,0,0,593.1,114.9Z" style="fill:#263238"></path><path d="M600.43,94.84c.15.44,1.71.24,3.54.49s3.3.78,3.55.39c.11-.19-.14-.6-.73-1a6.09,6.09,0,0,0-5.41-.68C600.71,94.29,600.37,94.63,600.43,94.84Z" style="fill:#263238"></path><path d="M581.94,96.87c.17.36,1.7.1,3.51.19s3.3.46,3.53.11c.09-.16-.18-.5-.79-.83a6.32,6.32,0,0,0-2.64-.66,6.54,6.54,0,0,0-2.72.43C582.18,96.38,581.86,96.69,581.94,96.87Z" style="fill:#263238"></path><path d="M618.34,108.09c.19-.08,7.93-2.25,7.6,5.62s-8.17,5.91-8.17,5.68S618.34,108.09,618.34,108.09Z" style="fill:#ffbf9d"></path><path d="M620.3,116.51s.13.1.36.22a1.36,1.36,0,0,0,1,.06c.85-.27,1.6-1.56,1.7-3a4.52,4.52,0,0,0-.3-2,1.56,1.56,0,0,0-1-1.1.71.71,0,0,0-.82.34c-.12.22-.07.38-.11.39s-.17-.14-.09-.46a.86.86,0,0,1,.33-.48,1,1,0,0,1,.77-.17,2,2,0,0,1,1.38,1.28,4.69,4.69,0,0,1,.38,2.21c-.12,1.59-1,3-2.14,3.32a1.5,1.5,0,0,1-1.25-.26C620.3,116.7,620.27,116.52,620.3,116.51Z" style="fill:#ff9a6c"></path><path d="M581.49,101.23c.2.25,1.61-.7,3.53-.59s3.28,1.17,3.5.94-.1-.55-.68-1a4.9,4.9,0,0,0-2.78-1,4.66,4.66,0,0,0-2.84.77C581.61,100.7,581.38,101.12,581.49,101.23Z" style="fill:#263238"></path><path d="M582.92,106.51a1.55,1.55,0,0,0,1.49,1.58,1.47,1.47,0,0,0,1.61-1.38,1.56,1.56,0,0,0-1.48-1.59A1.5,1.5,0,0,0,582.92,106.51Z" style="fill:#263238"></path><path d="M586,82c-1.24-4.81,2.72-7,6.87-9.73a12.35,12.35,0,0,1,14,.52c2.06,1.59,3.55,3.8,5.35,5.68s4.16,3.51,6.76,3.39a9.3,9.3,0,0,1-10.48,1.59A23.27,23.27,0,0,0,619.59,91a8.46,8.46,0,0,1-10.69-1.67,23.75,23.75,0,0,0,5.56,10c.44.47.95,1.07.75,1.7s-1,.82-1.66.85a10.89,10.89,0,0,1-9.69-5.31c-2.08-3.61-3.44-7.43-5.34-11.14-.9-1.76-3.8-4.86-6.15-5-2-.08-5.68.55-6.6,2.28" style="fill:#263238"></path><path d="M603.8,78a2.35,2.35,0,0,1,1.7-.89c4.34-.71,8.7,2,11.16,5.6s3.35,8.11,3.91,12.47c.45,3.54.7,7.24-.5,10.6l-2.13,2.79a7.39,7.39,0,0,0-.92,3c-.26,1-1.06,2.1-2.09,1.94a2.12,2.12,0,0,1-1.48-1.61c-.67-2.23.28-4.71-.47-6.91-.49-1.48-1.68-2.59-2.58-3.86a22.81,22.81,0,0,1-3-7.62L603.79,80A2.67,2.67,0,0,1,603.8,78Z" style="fill:#263238"></path><path d="M586,82c-1.24-4.81,2.72-7,6.87-9.73a12.35,12.35,0,0,1,14,.52c2.06,1.59,3.55,3.8,5.35,5.68s4.16,3.51,6.76,3.39a9.3,9.3,0,0,1-10.48,1.59A23.27,23.27,0,0,0,619.59,91a8.46,8.46,0,0,1-10.69-1.67,23.75,23.75,0,0,0,5.56,10c.44.47.95,1.07.75,1.7s-1,.82-1.66.85a10.89,10.89,0,0,1-9.69-5.31c-2.08-3.61-3.44-7.43-5.34-11.14-.9-1.76-3.8-4.86-6.15-5-2-.08-5.68.55-6.6,2.28" style="fill:#263238"></path><path d="M610.82,81.11s-.39-.12-1.05-.4a9.63,9.63,0,0,1-2.52-1.66c-1-.83-2-2-3.23-3.2a13.32,13.32,0,0,0-2.15-1.7,7.5,7.5,0,0,0-2.78-1,9.64,9.64,0,0,0-5.56.91,14.19,14.19,0,0,0-3.75,2.68,21.77,21.77,0,0,0-2,2.32,4.37,4.37,0,0,0-.64.93c.07.07,1-1.24,2.92-3a14.42,14.42,0,0,1,3.7-2.53,9.34,9.34,0,0,1,5.3-.83,8.81,8.81,0,0,1,4.68,2.57c1.24,1.16,2.29,2.32,3.32,3.14a9.15,9.15,0,0,0,2.68,1.57A2.78,2.78,0,0,0,610.82,81.11Z" style="fill:#455a64"></path><path d="M604.87,87.82s-.76-1-1.79-2.77c-.53-.86-1.13-1.92-1.92-3A10.62,10.62,0,0,0,598,78.9a8.89,8.89,0,0,0-4.28-1.26,8.49,8.49,0,0,0-3.58.7A7.76,7.76,0,0,0,588,79.63c-.44.38-.63.63-.61.65a13.72,13.72,0,0,1,2.82-1.62,8.49,8.49,0,0,1,3.43-.56,8.73,8.73,0,0,1,4.05,1.22,10.57,10.57,0,0,1,3.06,3c.79,1.07,1.42,2.11,2,3a19.69,19.69,0,0,0,1.45,2C604.61,87.63,604.85,87.84,604.87,87.82Z" style="fill:#455a64"></path><path d="M578.1,86.74a14.74,14.74,0,0,0,.82-1.66,10.91,10.91,0,0,1,2.62-3.47,7.44,7.44,0,0,1,3.91-1.73c1.11-.12,1.81.07,1.83,0a3.4,3.4,0,0,0-1.86-.33,7,7,0,0,0-4.2,1.7,9.84,9.84,0,0,0-2.62,3.7A4.69,4.69,0,0,0,578.1,86.74Z" style="fill:#455a64"></path><path d="M610.28,100.64a1.3,1.3,0,0,0,.33.08,6.69,6.69,0,0,0,1,.13,9.72,9.72,0,0,0,3.77-.51,5,5,0,0,0,2.35-1.43,1.55,1.55,0,0,0,.24-1.6,2.33,2.33,0,0,0-1.35-1.09c-.55-.22-1.13-.35-1.7-.54a11.84,11.84,0,0,1-1.68-.75,10.88,10.88,0,0,1-3.06-2.53l-.26.31a6.37,6.37,0,0,0,7.39-1l.23-.22-.29-.15A14.35,14.35,0,0,1,612,86.87l-.28.36a8.74,8.74,0,0,0,8.66-1.4l.28-.24.31-.26-.39-.15a8.14,8.14,0,0,1-3.3-2.5A27.24,27.24,0,0,1,615,79.25a21.93,21.93,0,0,0-2.37-3.32,16.87,16.87,0,0,0-23.86-1.53,11.71,11.71,0,0,0-2.23,2.45,25.55,25.55,0,0,1,2.35-2.31,17.48,17.48,0,0,1,8-3.74,16.23,16.23,0,0,1,6.12.09,17,17,0,0,1,6.43,2.81,17.77,17.77,0,0,1,5.14,5.8,27.54,27.54,0,0,0,2.36,3.5,8.77,8.77,0,0,0,3.5,2.64l-.08-.41-.26.22a8.27,8.27,0,0,1-8.17,1.33l-.76-.3.48.67a14.74,14.74,0,0,0,5.4,4.61l-.06-.37a6,6,0,0,1-6.87,1l-1-.56.73.87a11.17,11.17,0,0,0,3.2,2.6,10.25,10.25,0,0,0,1.75.75c.59.2,1.17.32,1.69.52a2,2,0,0,1,1.19.91,1.25,1.25,0,0,1-.18,1.3,4.85,4.85,0,0,1-2.21,1.38,10,10,0,0,1-3.68.6C610.74,100.7,610.28,100.61,610.28,100.64Z" style="fill:#455a64"></path><path d="M592.07,119.72l5.64-2.51a9,9,0,0,1,1.14,2.35,3.12,3.12,0,0,1-.29,2.54,4.09,4.09,0,0,1-2,1.38,3.7,3.7,0,0,1-2.14.3,2.83,2.83,0,0,1-1.78-1.64,8.33,8.33,0,0,1-.54-2.43" style="fill:#ff9a6c"></path><path d="M594.39,123.78a1,1,0,0,0,.63.15,4.43,4.43,0,0,0,1.73-.35,3.8,3.8,0,0,0,2.13-1.58,3.74,3.74,0,0,0,0-3.23,13.34,13.34,0,0,0-.92-1.69l-.11-.18-.19.09c-1.62.73-3,1.39-4,1.87a7.26,7.26,0,0,0-1.55.86,7.7,7.7,0,0,0,1.67-.58c1-.41,2.45-1,4.07-1.71l-.3-.1a13.26,13.26,0,0,1,.87,1.63,3.36,3.36,0,0,1,.1,2.83,3.6,3.6,0,0,1-1.86,1.47,5.34,5.34,0,0,1-1.6.48A4.23,4.23,0,0,0,594.39,123.78Z" style="fill:#263238"></path><polygon points="640.92 231.84 641.41 201.44 639.35 150.77 620.65 144.26 615.73 138.04 603.54 150.32 596.79 166.71 591.04 149.95 588.32 140.47 584.61 143.26 566.13 150.29 565.58 189.44 565.27 237.64 564.58 273.74 563.84 286.33 590.92 288.25 593 275.13 596.49 287.23 649.65 287.47 647.33 270.35 640.92 231.84" style="fill:#455a64"></polygon><g style="opacity:0.30000000000000004"><path d="M617.32,222.69c1.86,1.64,3.92,3.23,6.37,3.65,3.35.59,6.69-1.17,9.33-3.32s4.93-4.78,7.9-6.46l-.6,2.18a47.34,47.34,0,0,1-11.54,16.42c-2.19,2-4.74,3.89-7.69,4.15-4.55.39-8.53-3.2-10.8-7.15s-3.47-8.49-6-12.26a27.59,27.59,0,0,1-6.09-13.29,81.45,81.45,0,0,1-1-14.73A69.65,69.65,0,0,0,617.32,222.69Z"></path></g><path d="M601.29,204.54c-2,2.3-1.64,3.12-.73,6.32a2.66,2.66,0,0,0,2.5,1.85c3.8,6.48,10.84,18.75,18.09,19.11,9.07.45,18.81-9.54,22.7-21.46,0,0,9.77-33.73,6.87-45.75a20,20,0,0,0-11.37-13.84l-18.55,42L613.18,189Z" style="fill:#455a64"></path><path d="M623.3,196.12s.11-.19.18-.58a4.71,4.71,0,0,0,0-1.65,6.93,6.93,0,0,0-.87-2.3,11,11,0,0,0-1.79-2.39,7.15,7.15,0,0,0-2.51-1.68,4.84,4.84,0,0,0-2.47-.24,5.2,5.2,0,0,0-1.55.58c-.33.21-.5.34-.48.37a15,15,0,0,1,2.08-.6,4.63,4.63,0,0,1,2.25.32,7.06,7.06,0,0,1,2.33,1.6,10.34,10.34,0,0,1,2.67,4.41A13.26,13.26,0,0,1,623.3,196.12Z" style="fill:#263238"></path><path d="M621.84,191.4c.12,0,2.1-5.52,4.42-12.43s4.08-12.56,4-12.6-2.11,5.52-4.42,12.44S621.71,191.36,621.84,191.4Z" style="fill:#263238"></path><path d="M601.29,204.54l-.13.12c-.08.09-.21.22-.35.4a4.61,4.61,0,0,0-1,1.78,6.61,6.61,0,0,0,.36,3.19c.08.3.17.62.26.94a2.59,2.59,0,0,0,.51.95,3,3,0,0,0,2.1,1l-.14-.09a112.51,112.51,0,0,0,6,9.57,43.13,43.13,0,0,0,4.25,5.18,15.72,15.72,0,0,0,6,4.09,7.56,7.56,0,0,0,1.83.39,15.79,15.79,0,0,0,1.82,0c.6-.05,1.19-.17,1.78-.26s1.14-.31,1.7-.47a21,21,0,0,0,5.83-3.22,32.7,32.7,0,0,0,7.5-8.35A38.17,38.17,0,0,0,643,213c.34-.83.53-1.5.68-1.94a6.92,6.92,0,0,0,.2-.69,3.06,3.06,0,0,0-.29.65c-.19.44-.4,1.09-.76,1.91a42.54,42.54,0,0,1-3.55,6.62,33.09,33.09,0,0,1-7.48,8.18,20.74,20.74,0,0,1-5.72,3.12c-.54.15-1.08.33-1.64.46s-1.14.19-1.72.24a14.43,14.43,0,0,1-1.74,0,6.7,6.7,0,0,1-1.71-.37,15.32,15.32,0,0,1-5.77-4,43.59,43.59,0,0,1-4.22-5.11c-2.48-3.44-4.4-6.74-6-9.47l0-.08h-.1a2.71,2.71,0,0,1-1.88-.82,4.42,4.42,0,0,1-.74-1.76,6.52,6.52,0,0,1-.43-3.08,4.77,4.77,0,0,1,.87-1.76C601.15,204.75,601.3,204.55,601.29,204.54Z" style="fill:#263238"></path><path d="M603.06,212.71a4,4,0,0,0,1-.38c.61-.27,1.48-.71,2.53-1.29a58.35,58.35,0,0,0,7.79-5.21,44.27,44.27,0,0,0,6.78-6.48,23.48,23.48,0,0,0,1.67-2.31,4.42,4.42,0,0,0,.49-.92c-.08-.05-.85,1.22-2.43,3a52.79,52.79,0,0,1-6.81,6.33,75.5,75.5,0,0,1-7.67,5.29C604.35,212,603,212.64,603.06,212.71Z" style="fill:#263238"></path><path d="M623,196.14a13.1,13.1,0,0,1,3.83,2.4,13.35,13.35,0,0,1,2.43,3.82A3,3,0,0,0,629,201a7.88,7.88,0,0,0-4.64-4.61A2.71,2.71,0,0,0,623,196.14Z" style="fill:#263238"></path><path d="M590.49,174.12a1.23,1.23,0,0,0,0,.28c0,.21,0,.48,0,.82q0,1.14.12,3.15c.1,2.77.24,6.71.42,11.57.33,9.77.63,23.27.87,38.19s.45,28.39.61,38.2c.11,4.86.21,8.81.27,11.58.05,1.34.09,2.39.11,3.15,0,.33,0,.6.05.81a1,1,0,0,0,0,.28,1.45,1.45,0,0,0,0-.28v-.82c0-.75,0-1.81,0-3.15,0-2.77-.07-6.71-.13-11.57-.11-9.81-.28-23.3-.46-38.21s-.59-28.42-1-38.19c-.2-4.89-.41-8.84-.58-11.57l-.21-3.14c0-.34-.05-.61-.07-.82A1.33,1.33,0,0,0,590.49,174.12Z" style="fill:#263238"></path><path d="M578.06,236.55c0,.13,6.41,2.69,14.44,5.73s14.56,5.39,14.61,5.26-6.41-2.69-14.44-5.72S578.11,236.42,578.06,236.55Z" style="fill:#263238"></path><path d="M600.75,158.48a15.91,15.91,0,0,0,1.17-1.91l2.86-5.17-.35,0,4.38,6.2.17.25.21-.23.63-.71c3-3.46,5.77-6.61,7.74-8.9l2.3-2.74a6.74,6.74,0,0,0,.79-1,6.06,6.06,0,0,0-.94.92l-2.42,2.63c-2,2.23-4.8,5.35-7.84,8.8l-.63.71.39,0-4.44-6.16-.2-.28-.16.3-2.71,5.25A14.43,14.43,0,0,0,600.75,158.48Z" style="fill:#263238"></path><path d="M576.86,243.28c-.07.12,10.14,6.27,22.81,13.75s23,13.44,23.07,13.32-10.15-6.27-22.82-13.75S576.92,243.16,576.86,243.28Z" style="fill:#263238"></path><path d="M586.13,235a2.55,2.55,0,0,1,.87-1.41,1.77,1.77,0,0,1,1.65-.2,1.72,1.72,0,0,1,0,3.21,1.77,1.77,0,0,1-1.65-.2,2.55,2.55,0,0,1-.87-1.4s-.08.17,0,.49a1.92,1.92,0,0,0,.7,1.18,2.09,2.09,0,0,0,2,.36,2.15,2.15,0,0,0,0-4.07,2.09,2.09,0,0,0-2,.36,1.92,1.92,0,0,0-.7,1.18C586.05,234.85,586.1,235,586.13,235Z" style="fill:#263238"></path><path d="M584.44,205.14a2.62,2.62,0,0,1,.87-1.4,1.8,1.8,0,0,1,1.65-.21,1.72,1.72,0,0,1,0,3.22,1.8,1.8,0,0,1-1.65-.21,2.59,2.59,0,0,1-.87-1.4s-.08.17,0,.5a2,2,0,0,0,.69,1.18,2.08,2.08,0,0,0,2,.35,2.15,2.15,0,0,0,0-4.06,2.08,2.08,0,0,0-2,.35,2,2,0,0,0-.69,1.18C584.36,205,584.42,205.14,584.44,205.14Z" style="fill:#263238"></path><g style="opacity:0.30000000000000004"><path d="M605.22,246.83c-9.18.41-19.27-3.16-25.73-9.69,8.32,3.27,17.62,6.12,25.73,9.69"></path></g><path d="M577.86,142.77c-1.43,1-4,2.6-4,2.6l-.57,7.31,4.41.92.24-8.28s2.85-.86,2.65-2v-.05C580.34,141.9,579,142,577.86,142.77Z" style="fill:#ff9a6c"></path><path d="M602.42,141.3l-17,12.94a1.41,1.41,0,0,1-.84.28H568.71a1.39,1.39,0,0,1-1.39-1.39V153a1.38,1.38,0,0,1,.57-1.12l17.55-12.76a1.4,1.4,0,0,1,.82-.26h15.32a1.38,1.38,0,0,1,1.38,1.25h0A1.36,1.36,0,0,1,602.42,141.3Z" style="fill:#263238"></path><path d="M601.29,139.51l-.4.29c-2.55,1.91-16.94,12.45-16.94,12.45H568.59l17.47-12.74" style="fill:#e0e0e0"></path><path d="M593.26,139.92l3.41,5.25s4.4,7.67,4.68,9.66,1,6.95,1,6.95l13.24,25.94L602.31,205l-10.9-35.78s-10.64-4.7-11.35-5.83a20.51,20.51,0,0,1-1.42-4.26s-2.84-.23-4-1.08a21.51,21.51,0,0,1-4.47-5l-1.54-3.63a.13.13,0,0,1,.05-.16l.81-.47a2.36,2.36,0,0,1,1.43-.29,2.55,2.55,0,0,1,2.15,1.44,8.08,8.08,0,0,0,2.13,2.84l1.28.71,9.49.31a7.83,7.83,0,0,0,6-2.51l.34-.36V147a16,16,0,0,1-1.6-4,2.57,2.57,0,0,1,2.52-3.09Z" style="fill:#ffbf9d"></path><path d="M593.26,139.92a2,2,0,0,0-.58,0,2.64,2.64,0,0,0-1.47.88,2.77,2.77,0,0,0-.42,2.69,15.86,15.86,0,0,0,1.45,3.54v0c0,1.14,0,2.44,0,3.83l0-.08a8,8,0,0,1-6.62,2.78l-9.11-.32.08,0-1.27-.71,0,0a8.35,8.35,0,0,1-1.8-2.22c-.12-.22-.21-.43-.32-.68a2.15,2.15,0,0,0-.49-.67,2.81,2.81,0,0,0-1.49-.71,3.29,3.29,0,0,0-1.67.21,3.49,3.49,0,0,0-.39.19,1,1,0,0,0-.36.33,1,1,0,0,0-.11,1c.42,1,.86,2,1.29,3.07h0v0a21.21,21.21,0,0,0,3.42,4.15c.34.31.68.62,1,.92a4.28,4.28,0,0,0,1.31.63,14.93,14.93,0,0,0,2.82.53l-.2-.17a20.92,20.92,0,0,0,1.26,4,2,2,0,0,0,.77.86c.3.22.61.39.92.58.62.36,1.26.7,1.9,1,2.58,1.32,5.28,2.56,8,3.8l-.13-.15c1.89,6.21,3.88,12.73,5.91,19.43,1.71,5.59,3.38,11.06,5,16.35l.14.45.29-.37,13.21-17.25.09-.12-.06-.12c-5.1-9.93-9.61-18.73-13.29-25.91l0,0q-.4-2.79-.75-5.3a13.9,13.9,0,0,0-.45-2.43,21.78,21.78,0,0,0-.9-2.12c-1.29-2.68-2.55-4.88-3.57-6.68l-2.62-4-.68-1c-.16-.23-.25-.34-.25-.34a3.21,3.21,0,0,0,.21.36l.64,1,2.54,4c1,1.81,2.23,4,3.49,6.7a22.44,22.44,0,0,1,.88,2.1,14.34,14.34,0,0,1,.41,2.39c.23,1.67.47,3.43.72,5.3v0l0,0,13.18,26,0-.24-13.25,17.24.43.07-5-16.35c-2.05-6.7-4-13.22-5.93-19.43l0-.11-.1,0c-2.76-1.23-5.46-2.47-8-3.78-.64-.32-1.27-.66-1.88-1-.3-.18-.61-.36-.88-.56a1.48,1.48,0,0,1-.63-.68,21.43,21.43,0,0,1-1.23-3.89l0-.16-.17,0a14.25,14.25,0,0,1-2.71-.5,4,4,0,0,1-1.18-.56c-.35-.27-.69-.58-1-.89a20.73,20.73,0,0,1-3.37-4l0,0c-.44-1-.87-2.06-1.3-3.06a.65.65,0,0,1,.06-.59,1.3,1.3,0,0,1,.57-.38,2.81,2.81,0,0,1,1.46-.19,2.49,2.49,0,0,1,1.29.6,4.1,4.1,0,0,1,.74,1.25,8.29,8.29,0,0,0,1.9,2.32h0l1.28.7,0,0h0l9.11.27a8.24,8.24,0,0,0,6.82-2.92l0,0v-.05c0-1.39,0-2.69,0-3.83V147a16.51,16.51,0,0,1-1.49-3.48,2.58,2.58,0,0,1,1.75-3.48C593.06,139.92,593.26,139.94,593.26,139.92Z" style="fill:#ff9a6c"></path><path d="M577.89,159.22a7.36,7.36,0,0,0,2.61.52,7.25,7.25,0,0,0,2.66,0,7.36,7.36,0,0,0-2.61-.52A7.26,7.26,0,0,0,577.89,159.22Z" style="fill:#ff9a6c"></path><path d="M559,143.73a2.24,2.24,0,0,0-.26-.3l-.76-.82a13,13,0,0,1-1.17-1.32l-.68-.86c-.12-.16-.25-.31-.37-.48s-.23-.34-.35-.53A20.09,20.09,0,0,1,554,137c-.22-.46-.49-.91-.69-1.42l-.59-1.55a22.38,22.38,0,0,1-1.17-7.29,22,22,0,0,1,1.38-7.25c.21-.53.39-1.06.61-1.55l.7-1.41c.12-.22.23-.45.34-.67l.38-.61.73-1.15a28.12,28.12,0,0,1,2.53-3.21l.75-.84a2.64,2.64,0,0,0,.24-.3,1.49,1.49,0,0,0-.29.25l-.8.8a24.25,24.25,0,0,0-2.64,3.16l-.75,1.15c-.13.2-.26.41-.4.61l-.35.67c-.23.46-.48.93-.73,1.42s-.41,1-.63,1.57a21.8,21.8,0,0,0-1.42,7.36,22.11,22.11,0,0,0,1.21,7.39l.62,1.58c.2.51.49,1,.71,1.42a19,19,0,0,0,1.5,2.44c.12.18.23.36.36.52l.38.47.71.86a12.12,12.12,0,0,0,1.22,1.29l.82.77A1.35,1.35,0,0,0,559,143.73Z" style="fill:#263238"></path><path d="M565.63,138.94a20.65,20.65,0,0,1-2.55-3.16c-.16-.27-.34-.54-.5-.84l-.46-1c-.07-.17-.16-.34-.23-.51l-.19-.55c-.13-.37-.28-.75-.39-1.14a19.77,19.77,0,0,1-.72-5.32,18.78,18.78,0,0,1,.79-5.31c.13-.39.25-.77.38-1.15s.31-.7.45-1a13.86,13.86,0,0,1,1-1.81,12.12,12.12,0,0,1,1-1.38,8.17,8.17,0,0,1,.83-1,6.34,6.34,0,0,0,.73-.82,6.64,6.64,0,0,0-.82.72,6,6,0,0,0-.89,1,11.09,11.09,0,0,0-1,1.37,13.26,13.26,0,0,0-1,1.81c-.16.35-.35.69-.48,1.06s-.27.77-.4,1.17a18.64,18.64,0,0,0-.84,5.4,19.57,19.57,0,0,0,.77,5.41c.12.4.28.78.41,1.16l.2.55c.08.18.17.35.25.52.16.33.32.66.48,1s.36.58.53.85.33.53.51.75.35.43.52.62l.45.54.44.4A6.64,6.64,0,0,0,565.63,138.94Z" style="fill:#263238"></path><path d="M571.94,133.67a18.56,18.56,0,0,1-1.35-1.91,11.7,11.7,0,0,1-1.4-5.39,10.45,10.45,0,0,1,1.3-5.39c.74-1.25,1.44-1.84,1.38-1.9s-.19.13-.49.41a3.5,3.5,0,0,0-.51.55,6.31,6.31,0,0,0-.59.81,10,10,0,0,0-1.44,5.52,11,11,0,0,0,1.54,5.51c.1.15.19.3.28.45l.29.37a3.62,3.62,0,0,0,.5.56C571.75,133.55,571.92,133.69,571.94,133.67Z" style="fill:#263238"></path><path d="M566.39,168.29a4,4,0,0,1,0,.79c0,.56,0,1.3,0,2.24,0,2-.09,4.8-.15,8.24-.17,7-.4,16.6-.66,27.19s-.38,20.24-.39,27.2c0,3.44,0,6.24,0,8.24v2.25a3.92,3.92,0,0,1,0,.78,4.39,4.39,0,0,1-.07-.78c0-.56-.06-1.31-.1-2.24-.07-1.95-.14-4.76-.18-8.25-.08-7,0-16.58.24-27.21s.57-20.23.81-27.19c.13-3.44.24-6.24.32-8.24,0-.93.08-1.68.1-2.24A3.73,3.73,0,0,1,566.39,168.29Z" style="fill:#263238"></path></g><g id="freepik--character-1--inject-4"><path d="M171.82,117.86l3.66,3.53,5.4-5.25,1.51-3.93,6.82-6.12a33.23,33.23,0,0,1,0,3.94l3.85,7.43v13.85l3.85,7.51-13.28,6.05-4.3-10.81A29,29,0,0,1,173,129c-2.16-2.62-4.38-11.87-4.38-11.87A3.24,3.24,0,0,1,171.82,117.86Z" style="fill:#ae7461"></path><path d="M183.18,120.92a1.37,1.37,0,0,0,.4-1.39l-2-7.27-6.1-19.57a1.38,1.38,0,0,0-2.24-.63l-8.37,7.44a1.39,1.39,0,0,0-.4,1.46L173,127.61a1.4,1.4,0,0,0,2.27.6Z" style="fill:#e0e0e0"></path><path d="M182.15,120.3a1.27,1.27,0,0,0,.36-1.27l-1.89-6.82L175,93.78a1.26,1.26,0,0,0-2-.57L165.26,100a1.26,1.26,0,0,0-.37,1.33l8.26,25.09a1.25,1.25,0,0,0,2,.54Z" style="fill:#263238"></path><path d="M182.39,112.21s-.77.26-2.81,1.05c-2.43.95-3-.32-3-.32h0a1.72,1.72,0,0,1,.94-2.24l4.89-2-.06-1s-2.54.31-4.41.31c-3.92,0-2.44-3.36-2.44-3.36l4.5-.59-2.29-3.32a2.5,2.5,0,0,1,.41-3.67l8.48,7s2.47,1,2.63,2a33.23,33.23,0,0,1,0,3.94Z" style="fill:#ae7461"></path><path d="M177.46,113.55a3.84,3.84,0,0,0,1.93,0,20.42,20.42,0,0,0,4.43-1.39l.61-.27-.35-.11c.87,1.37,1.48,2.69,2,3.6a4.49,4.49,0,0,0,1,1.38,6.81,6.81,0,0,0-.67-1.55,33.14,33.14,0,0,0-1.9-3.73l-.12-.2-.23.1-.6.26a30.78,30.78,0,0,1-4.29,1.52C178.18,113.43,177.46,113.47,177.46,113.55Z" style="fill:#6f4439"></path><path d="M182.35,108.94c.05.07.42-.17,1.05-.39a4.59,4.59,0,0,1,4.77,1c.49.45.72.81.8.77s-.05-.47-.51-1a4.29,4.29,0,0,0-5.22-1.1C182.59,108.52,182.31,108.89,182.35,108.94Z" style="fill:#6f4439"></path><path d="M176.18,104.55c0,.16,2.35-.36,5.25-.47s5.24.19,5.27,0a13.13,13.13,0,0,0-5.3-.58A13.27,13.27,0,0,0,176.18,104.55Z" style="fill:#6f4439"></path><path d="M182.24,131.61c.09,0-.13-.81-.17-2.09a10.32,10.32,0,0,1,4-8.65c1-.79,1.75-1.12,1.71-1.21a4.44,4.44,0,0,0-1.94.89,9.59,9.59,0,0,0-4.21,9A4.51,4.51,0,0,0,182.24,131.61Z" style="fill:#6f4439"></path><path d="M168.63,141.16l.45-1c3.92,2.1,5.43,1,11,6.54l10.6,15.83-11.33-28.5,13.73-2.75s13.63,25.73,19.72,37.44a27.52,27.52,0,0,1,3.12,17.42c-.83,6.67-8.26,12.14-14.92,11.19-6.28-.9-12.43-6.09-16.26-11L171.89,172Z" style="fill:#ae7461"></path><path d="M178.91,132.3c6,15.85,12.33,30.62,19.5,47.88" style="fill:#ff9a6c"></path><path d="M198.41,180.18a2.31,2.31,0,0,1-.25-.46c-.16-.37-.37-.82-.62-1.37l-2.21-5.08c-1.85-4.3-4.38-10.25-7.1-16.85s-5.12-12.61-6.77-17c-.83-2.19-1.49-4-1.92-5.2-.2-.57-.36-1.05-.49-1.43a1.68,1.68,0,0,1-.14-.51,2.09,2.09,0,0,1,.24.48c.15.37.34.83.58,1.39l2.07,5.13c1.74,4.34,4.18,10.33,6.91,16.92s5.15,12.51,7,16.9l2.06,5.15.53,1.41A1.63,1.63,0,0,1,198.41,180.18Z" style="fill:#263238"></path><path d="M146.13,64.13a5.34,5.34,0,0,1,5.73-2.33,7.27,7.27,0,0,1,9,.82,6.56,6.56,0,0,1,6.39.33,6.67,6.67,0,0,1,3,5.7,5.56,5.56,0,0,1,5.45,3.27,5.64,5.64,0,0,1-1.38,6.24,5.25,5.25,0,0,1-2.92,10l-24.7-17.86A5.4,5.4,0,0,1,146.13,64.13Z" style="fill:#263238"></path><path d="M172.06,89a22.2,22.2,0,0,0-20.54-22l-1.14-.08c-12.38-.16-17.09,11-16.92,23.42l-2.22,46.08h0l18.36,18.44,6.72-12.27,2.32-12.22s12-1,13-12.91C172.11,111.68,172.15,99.76,172.06,89Z" style="fill:#ae7461"></path><path d="M158.74,130.33a28.66,28.66,0,0,1-15.2-5.68s2.59,9.14,14.49,8.91Z" style="fill:#6f4439"></path><path d="M167.83,99a1.69,1.69,0,0,1-1.75,1.6,1.61,1.61,0,0,1-1.63-1.66,1.7,1.7,0,0,1,1.75-1.6A1.62,1.62,0,0,1,167.83,99Z" style="fill:#263238"></path><path d="M169.18,95.23c-.22.21-1.44-.84-3.26-1s-3.22.69-3.4.45.15-.49.76-.87a4.58,4.58,0,0,1,2.75-.64,4.43,4.43,0,0,1,2.57,1C169.13,94.73,169.29,95.14,169.18,95.23Z" style="fill:#263238"></path><path d="M152.17,98.17a1.71,1.71,0,0,1-1.76,1.6,1.62,1.62,0,0,1-1.63-1.66,1.7,1.7,0,0,1,1.75-1.6A1.63,1.63,0,0,1,152.17,98.17Z" style="fill:#263238"></path><path d="M151.78,93.73c-.22.2-1.44-.84-3.26-1s-3.22.7-3.4.46.15-.49.76-.88a4.73,4.73,0,0,1,2.75-.64,4.47,4.47,0,0,1,2.57,1C151.73,93.22,151.89,93.64,151.78,93.73Z" style="fill:#263238"></path><path d="M156.8,107.73a12.29,12.29,0,0,1,3-.32c.47,0,.91-.08,1-.39a2.32,2.32,0,0,0-.21-1.41L159.49,102c-1.55-5.21-2.63-9.48-2.42-9.54s1.63,4.11,3.17,9.32c.37,1.28.73,2.51,1.06,3.68a2.69,2.69,0,0,1,.11,1.85,1.18,1.18,0,0,1-.81.63,2.86,2.86,0,0,1-.8,0A11.45,11.45,0,0,1,156.8,107.73Z" style="fill:#263238"></path><path d="M151.35,108.61c.3,0,.16,2,1.75,3.53s3.71,1.46,3.71,1.74-.5.35-1.39.32a4.93,4.93,0,0,1-3.1-1.35,4.32,4.32,0,0,1-1.34-2.94C151,109.07,151.22,108.59,151.35,108.61Z" style="fill:#263238"></path><path d="M152.18,88.5c-.25.46-1.79-.08-3.7-.19s-3.52.18-3.68-.3c-.07-.24.28-.65,1-1a5.74,5.74,0,0,1,5.62.37C152,87.83,152.29,88.28,152.18,88.5Z" style="fill:#263238"></path><path d="M169.13,90.18c-.32.42-1.58,0-3.09,0s-2.79.31-3.09-.12c-.13-.21.07-.63.62-1a4.41,4.41,0,0,1,5,.1C169.09,89.55,169.27,90,169.13,90.18Z" style="fill:#263238"></path><path d="M171.31,83.42s-2.59-7.69-6-9.68c-4.18-2.42-6.39,2.23-10.43.77s-8-3.78-12.49-.87c-4.87,3.18-2.88,5.8-3.54,11.07-2.7,21.35-7,27.14-7.41,17,0-1.12-3-2.22-3.15-6.92-.15-6.11.15-13.48,1.8-17.69,1.4-3.54,3.63-5.9,7.51-8.39,6.13-4,14.13-3.47,19.52-2.53S172.48,74.11,171.31,83.42Z" style="fill:#263238"></path><path d="M133.68,101.51a3.23,3.23,0,0,0-3.25-3.37c-2.22,0-4.77,1.14-5,5.74-.33,8.17,7.89,6.81,7.92,6.57S133.57,104.93,133.68,101.51Z" style="fill:#ae7461"></path><path d="M131.74,107.31s-.14.1-.39.2a1.46,1.46,0,0,1-1,0c-.85-.35-1.52-1.75-1.5-3.23a4.85,4.85,0,0,1,.48-2,1.65,1.65,0,0,1,1.11-1,.72.72,0,0,1,.82.43c.1.23,0,.39.08.41s.18-.13.13-.47a1,1,0,0,0-.3-.53,1.05,1.05,0,0,0-.77-.24,2,2,0,0,0-1.53,1.21,4.82,4.82,0,0,0-.58,2.26c0,1.64.76,3.22,1.92,3.6a1.49,1.49,0,0,0,1.3-.16C131.72,107.51,131.77,107.33,131.74,107.31Z" style="fill:#6f4439"></path><path d="M133.47,85.62a7.6,7.6,0,0,0,3.32,1.84,2.64,2.64,0,0,0,3.06-1.66c.14-.56.05-1.22.45-1.64s1.28-.26,2-.14a5.17,5.17,0,0,0,5.63-3.35,2.17,2.17,0,0,0,2.89.49,11.63,11.63,0,0,0,2.38-2.22,3.35,3.35,0,0,1,2.88-1.2,7.89,7.89,0,0,0,1.74.52c1.07,0,1.68-1.23,1.91-2.28s.45-2.28,1.4-2.8,1.93-.09,2.9.13,2.25.08,2.57-.87a1.91,1.91,0,0,0-.26-1.5,5.24,5.24,0,0,0-6.05-2.45,7.11,7.11,0,0,0-13-2.32A7.23,7.23,0,0,0,135.56,68a5.37,5.37,0,0,0-5.6,1.47,5.46,5.46,0,0,0-.85,5.76,5,5,0,0,0-3,3.78c-.15,1.68,1.37,3.48,3,3.15a3,3,0,0,0,.86,3.92,3,3,0,0,0,3.94-.65" style="fill:#263238"></path><path d="M128.51,82.09a2,2,0,0,0,.4,1.61,2.61,2.61,0,0,0,1.55,1.09,2.82,2.82,0,0,0,2.36-.51l-.34-.08A8.32,8.32,0,0,0,134,86.35a4.74,4.74,0,0,0,1.41,1,3.59,3.59,0,0,0,4-.91,4.91,4.91,0,0,0,.78-1.65,1.63,1.63,0,0,0,.11-.66,2.22,2.22,0,0,0-.28.6,5.71,5.71,0,0,1-.86,1.49,3.29,3.29,0,0,1-4.88-.23,8.12,8.12,0,0,1-1.4-2l-.13-.26-.21.18a2.45,2.45,0,0,1-2,.48,2.36,2.36,0,0,1-1.41-.88A4.1,4.1,0,0,1,128.51,82.09Z" style="fill:#455a64"></path><path d="M145.16,64.58a5.21,5.21,0,0,0,.55.26A2.75,2.75,0,0,1,146.9,66l.08.16.12-.14a10.2,10.2,0,0,1,4.15-2.91,7.8,7.8,0,0,1,3.24-.47,6.63,6.63,0,0,1,3.36,1.23,6.85,6.85,0,0,1,1.9,2.09,5.63,5.63,0,0,1,.72,2.52v.26l.25,0a4.51,4.51,0,0,1,3.34.66,4.45,4.45,0,0,1,1.7,2.12,6,6,0,0,1,.33,2.45,1.74,1.74,0,0,0,.15-.66,4.67,4.67,0,0,0-.23-1.89,4.61,4.61,0,0,0-1.75-2.32,4.82,4.82,0,0,0-3.62-.78l.26.21a5.85,5.85,0,0,0-.75-2.74,7,7,0,0,0-2-2.25,6.94,6.94,0,0,0-3.6-1.31,8.06,8.06,0,0,0-3.41.55,9.9,9.9,0,0,0-4.2,3.13l.21,0a2.75,2.75,0,0,0-1.35-1.17A1.32,1.32,0,0,0,145.16,64.58Z" style="fill:#455a64"></path><path d="M174.6,438l-.84,22.21s22.29,8.31,22.54,12.43l-43.13-.08-.11-34.66Z" style="fill:#455a64"></path><path d="M160.43,458.27a1.74,1.74,0,0,0-1.22,2,1.69,1.69,0,0,0,2,1.23,1.87,1.87,0,0,0,1.28-2.13,1.75,1.75,0,0,0-2.2-1.05" style="fill:#e0e0e0"></path><path d="M153.17,472.51l.13-3.49,41.3,1.38s1.92.84,1.7,2.19Z" style="fill:#263238"></path><path d="M174.46,459.94c0,.21-1.06.3-2.1,1s-1.59,1.56-1.78,1.47.12-1.3,1.39-2.09S174.5,459.75,174.46,459.94Z" style="fill:#fff"></path><path d="M179,461.82c.05.2-.87.56-1.58,1.45s-.93,1.83-1.14,1.82-.34-1.2.57-2.29S179,461.62,179,461.82Z" style="fill:#fff"></path><path d="M181.54,467.24c-.19,0-.49-1,.06-2.16s1.52-1.61,1.61-1.44-.52.79-1,1.75S181.75,467.22,181.54,467.24Z" style="fill:#fff"></path><path d="M174.09,454.86c-.09.19-1.06-.1-2.25,0s-2.12.45-2.23.27.79-.93,2.19-1S174.19,454.69,174.09,454.86Z" style="fill:#fff"></path><path d="M122.86,439.32l-1.19,26.87,5.17,21.52a2.75,2.75,0,0,1-2.21,3.36h0a2.73,2.73,0,0,1-2.41-.77c-4-4-18.32-19.09-18.38-20.53-.1-2.28-.76-28.74-.76-28.74Z" style="fill:#455a64"></path><path d="M124.63,491.07l-20.89-23.44,0,1.14a4.38,4.38,0,0,0,.93,2.71c1.66,2,6.38,7.58,17.5,18.82a2.74,2.74,0,0,0,2.49.77Z" style="fill:#263238"></path><g style="opacity:0.6000000000000001"><path d="M109.44,459.08a1.67,1.67,0,0,1,.41,2.19,1.6,1.6,0,0,1-2.16.42,1.76,1.76,0,0,1-.42-2.32,1.66,1.66,0,0,1,2.3-.19" style="fill:#fff"></path></g><path d="M118.74,479.19a8.27,8.27,0,0,1,2.4-2,8.6,8.6,0,0,1,3.11-.53c0-.06-.31-.28-.94-.38a4.27,4.27,0,0,0-2.42.37,4.38,4.38,0,0,0-1.84,1.61C118.72,478.77,118.67,479.17,118.74,479.19Z" style="fill:#fff"></path><path d="M120.57,482.83a22,22,0,0,1,2.41-1.1,24.61,24.61,0,0,1,2.63-.29,3.07,3.07,0,0,0-2.79-.28C121.23,481.59,120.44,482.75,120.57,482.83Z" style="fill:#fff"></path><path d="M115.27,474.5c.13.13,1.48-1.19,3.6-2s4-.66,4-.84a7.55,7.55,0,0,0-7.61,2.8Z" style="fill:#fff"></path><path d="M115,466.3c.07.16,1.57-.43,3.51-.45s3.45.47,3.51.3a6.87,6.87,0,0,0-7,.15Z" style="fill:#fff"></path><path d="M115.11,458.41a13,13,0,0,1,3.63-.57,13.4,13.4,0,0,1,3.54,1c0-.06-.24-.4-.85-.77a5.9,5.9,0,0,0-2.66-.79,5.8,5.8,0,0,0-2.73.49C115.39,458,115.07,458.35,115.11,458.41Z" style="fill:#fff"></path><path d="M118.72,456.33a2.06,2.06,0,0,0,.06-1,6.89,6.89,0,0,0-.75-2.68,3.14,3.14,0,0,0-1.31-1.53,1.11,1.11,0,0,0-1.25.22,1.74,1.74,0,0,0-.45,1.21,3.89,3.89,0,0,0,3.33,3.67,4.52,4.52,0,0,0,4.49-2.26,1.6,1.6,0,0,0,.1-1.31,1.1,1.1,0,0,0-1.12-.6,4,4,0,0,0-1.8.89,7.8,7.8,0,0,0-1.88,2.05,2.45,2.45,0,0,0-.43.92,12.46,12.46,0,0,1,2.56-2.64,3.68,3.68,0,0,1,1.58-.73.6.6,0,0,1,.62.33,1.12,1.12,0,0,1-.12.85,4,4,0,0,1-3.91,1.92,3.39,3.39,0,0,1-2.88-3.08,1.33,1.33,0,0,1,.28-.86.61.61,0,0,1,.69-.13,2.8,2.8,0,0,1,1.13,1.27A10.48,10.48,0,0,1,118.72,456.33Z" style="fill:#fff"></path><path d="M187.86,252.16a95.37,95.37,0,0,1,3.28,28c-.21,6-13.34,171.78-13.34,171.78l-27.16,1.16,1.06-155.36-2.2.58s-12,66.75-12.78,77.51c-.68,9.66-10.23,80.1-10.23,80.1l-24.73-.68,3.92-90.78,5.47-89.12,2.38-26Z" style="fill:#263238"></path><path d="M146.75,282.08a4.79,4.79,0,0,0,1.16.59,13.38,13.38,0,0,0,3.41,1,7.17,7.17,0,0,0,2.51-.09,5.2,5.2,0,0,0,2.56-1.37,6.19,6.19,0,0,0,1.47-2.84c.27-1.07.41-2.17.59-3.3.67-4.51,1.09-8.62,1.3-11.6.11-1.49.17-2.7.2-3.53a5.23,5.23,0,0,0,0-1.3,5.35,5.35,0,0,0-.2,1.28c-.1,1-.23,2.13-.38,3.51-.32,3-.8,7.06-1.47,11.56-.35,2.22-.55,4.48-1.87,5.85a5.63,5.63,0,0,1-4.64,1.42,15,15,0,0,1-3.38-.84A6.35,6.35,0,0,0,146.75,282.08Z" style="fill:#455a64"></path><path d="M154,260.71s-.18-.14-.56-.14a2.36,2.36,0,0,0-1.5.55,2.71,2.71,0,0,0-1.06,2.15,2.69,2.69,0,0,0,4.66,1.52,2.71,2.71,0,0,0,.42-2.35,2.48,2.48,0,0,0-.88-1.34c-.32-.22-.53-.24-.54-.22a3.11,3.11,0,0,1,1,1.65,2.37,2.37,0,0,1-.43,1.93,2.21,2.21,0,0,1-3.72-1.22,2.38,2.38,0,0,1,.79-1.81A3,3,0,0,1,154,260.71Z" style="fill:#455a64"></path><path d="M111.46,273.72a3.06,3.06,0,0,0,.93.1,17,17,0,0,0,2.55-.08,24.68,24.68,0,0,0,15-7.07,17.15,17.15,0,0,0,1.68-1.92,3,3,0,0,0,.51-.78c-.08-.07-.91,1-2.47,2.41a27.5,27.5,0,0,1-14.75,7C112.79,273.63,111.46,273.61,111.46,273.72Z" style="fill:#455a64"></path><path d="M123.27,249.35a2.66,2.66,0,0,0,.55.26l1.61.65c1.4.56,3.45,1.3,6,2.14s5.64,1.73,9.1,2.6,7.29,1.64,11.36,2.29,8,1,11.52,1.3,6.76.33,9.45.31,4.88-.09,6.38-.2l1.73-.12a3,3,0,0,0,.6-.08,2.4,2.4,0,0,0-.61,0l-1.73,0c-1.5.05-3.68.06-6.36,0s-5.89-.16-9.43-.42S156,257.4,152,256.78s-7.87-1.44-11.33-2.25-6.54-1.68-9.1-2.48-4.63-1.48-6.05-2l-1.64-.56A2.51,2.51,0,0,0,123.27,249.35Z" style="fill:#263238"></path><path d="M170,138.94l-12.76-2.25s-.68,5.75-9.34,5.94c-10,.22-17-9-17-9s-22.11,6.87-26.47,10.38,9.87,76.86,9.87,76.86l1.29,21.85a16.27,16.27,0,0,0-2.13,7.33c0,3.79-.14,6.32-.14,6.32,26.58,8,53,15,77.23,7.2,0,0-.6-12.89-2-16.4s-1.14-3.84-1.14-3.84l-4-38.24-3.83-37.21Z" style="fill:#004CFF"></path><path d="M170,138.94s6.31,2.07,10,6.34,11.76,19.12,11.76,19.12l-7.05,24.52-10.21-5.31Z" style="fill:#004CFF"></path><path d="M184.85,214.9q-3.57-31.35-7.13-62.72" style="fill:#fafafa"></path><path d="M177.72,152.18c.14,0,1.85,14,3.82,31.33s3.45,31.38,3.31,31.39-1.86-14-3.83-31.33S177.57,152.2,177.72,152.18Z" style="fill:#263238"></path><path d="M103.68,214.9s12.1-40.94,13.7-45.56l-1.68-28.18c-5.12.66-15.15,2.19-17.76,10.3-3.3,10.24-12.24,39.22-17.4,54.93a23.64,23.64,0,0,0,.92,16.66c3,6.87,28.62,43.95,28.62,43.95l12.27-7.95S112.52,234.57,103.68,214.9Z" style="fill:#ae7461"></path><path d="M137.52,267.45c-.4-.14-3.33-.64-5-2.38a32.68,32.68,0,0,0-7.86-5.48l-2.38-.82L110.08,267,112,277a17.65,17.65,0,0,0,10.41-1.81,13.32,13.32,0,0,0,6.61-7.52s3.85,2.65,6.36,3,4.11-.67,3.84-1.68S137.52,267.45,137.52,267.45Z" style="fill:#ae7461"></path><path d="M85.86,181.22l28.74,14.17,7.92-25.22-6.47-30s-14.47.53-19.23,12.36S85.86,181.22,85.86,181.22Z" style="fill:#004CFF"></path><path d="M122.52,168.84a3.78,3.78,0,0,1-.14.54c-.13.4-.29.9-.48,1.52L120,176.45l-6.38,18.44-.1.28-.26-.13-1.44-.71-18.43-9.17-5.56-2.84-1.5-.79a2.94,2.94,0,0,1-.51-.31,2.34,2.34,0,0,1,.56.22l1.54.7,5.63,2.69,18.5,9,1.44.71-.36.15c2.55-7.2,4.85-13.65,6.53-18.39.83-2.28,1.52-4.14,2-5.5.24-.6.42-1.09.57-1.48A2.27,2.27,0,0,1,122.52,168.84Z" style="fill:#263238"></path><path d="M122.52,151.17c-.07.07-.82-.67-2.18-1.66a23.71,23.71,0,0,0-5.78-3.09,24,24,0,0,0-6.41-1.34c-1.69-.11-2.74,0-2.74-.12a2.06,2.06,0,0,1,.73-.15,15,15,0,0,1,2-.1,20.79,20.79,0,0,1,6.58,1.22,20.54,20.54,0,0,1,5.82,3.28,14.73,14.73,0,0,1,1.49,1.38A2.57,2.57,0,0,1,122.52,151.17Z" style="fill:#263238"></path></g></svg>
